<mxfile host="Electron" agent="Mozilla/5.0 (Windows NT 10.0; Win64; x64) AppleWebKit/537.36 (KHTML, like Gecko) draw.io/28.2.5 Chrome/138.0.7204.251 Electron/37.6.1 Safari/537.36" version="28.2.5">
  <diagram name="Page-1" id="c4acf3e9-155e-7222-9cf6-157b1a14988f">
    <mxGraphModel dx="1718" dy="1742" grid="1" gridSize="10" guides="1" tooltips="1" connect="1" arrows="1" fold="1" page="1" pageScale="1" pageWidth="850" pageHeight="1100" background="none" math="0" shadow="0">
      <root>
        <mxCell id="0" />
        <mxCell id="1" parent="0" />
        <mxCell id="wXAxOGZ1mU8DHfjWl0_P-1" value="BurnerMotor" style="swimlane;fontStyle=1;align=center;verticalAlign=top;childLayout=stackLayout;horizontal=1;startSize=26;horizontalStack=0;resizeParent=1;resizeParentMax=0;resizeLast=0;collapsible=1;marginBottom=0;whiteSpace=wrap;html=1;" parent="1" vertex="1">
          <mxGeometry x="-30" y="816" width="160" height="242" as="geometry" />
        </mxCell>
        <mxCell id="wXAxOGZ1mU8DHfjWl0_P-2" value="+ Fuel: String&lt;br&gt;&lt;div&gt;&lt;br&gt;&lt;/div&gt;" style="text;strokeColor=none;fillColor=none;align=left;verticalAlign=top;spacingLeft=4;spacingRight=4;overflow=hidden;rotatable=0;points=[[0,0.5],[1,0.5]];portConstraint=eastwest;whiteSpace=wrap;html=1;" parent="wXAxOGZ1mU8DHfjWl0_P-1" vertex="1">
          <mxGeometry y="26" width="160" height="26" as="geometry" />
        </mxCell>
        <mxCell id="wXAxOGZ1mU8DHfjWl0_P-26" value="+ EngineCapacity: Int" style="text;strokeColor=none;fillColor=none;align=left;verticalAlign=top;spacingLeft=4;spacingRight=4;overflow=hidden;rotatable=0;points=[[0,0.5],[1,0.5]];portConstraint=eastwest;whiteSpace=wrap;html=1;" parent="wXAxOGZ1mU8DHfjWl0_P-1" vertex="1">
          <mxGeometry y="52" width="160" height="26" as="geometry" />
        </mxCell>
        <mxCell id="wXAxOGZ1mU8DHfjWl0_P-25" value="+ Cylinders: int" style="text;strokeColor=none;fillColor=none;align=left;verticalAlign=top;spacingLeft=4;spacingRight=4;overflow=hidden;rotatable=0;points=[[0,0.5],[1,0.5]];portConstraint=eastwest;whiteSpace=wrap;html=1;" parent="wXAxOGZ1mU8DHfjWl0_P-1" vertex="1">
          <mxGeometry y="78" width="160" height="26" as="geometry" />
        </mxCell>
        <mxCell id="wXAxOGZ1mU8DHfjWl0_P-78" value="+ Gears: int" style="text;strokeColor=none;fillColor=none;align=left;verticalAlign=top;spacingLeft=4;spacingRight=4;overflow=hidden;rotatable=0;points=[[0,0.5],[1,0.5]];portConstraint=eastwest;whiteSpace=wrap;html=1;" parent="wXAxOGZ1mU8DHfjWl0_P-1" vertex="1">
          <mxGeometry y="104" width="160" height="26" as="geometry" />
        </mxCell>
        <mxCell id="wXAxOGZ1mU8DHfjWl0_P-79" value="+ Transmission: String" style="text;strokeColor=none;fillColor=none;align=left;verticalAlign=top;spacingLeft=4;spacingRight=4;overflow=hidden;rotatable=0;points=[[0,0.5],[1,0.5]];portConstraint=eastwest;whiteSpace=wrap;html=1;" parent="wXAxOGZ1mU8DHfjWl0_P-1" vertex="1">
          <mxGeometry y="130" width="160" height="26" as="geometry" />
        </mxCell>
        <mxCell id="wXAxOGZ1mU8DHfjWl0_P-81" value="+ Aspiration: String" style="text;strokeColor=none;fillColor=none;align=left;verticalAlign=top;spacingLeft=4;spacingRight=4;overflow=hidden;rotatable=0;points=[[0,0.5],[1,0.5]];portConstraint=eastwest;whiteSpace=wrap;html=1;" parent="wXAxOGZ1mU8DHfjWl0_P-1" vertex="1">
          <mxGeometry y="156" width="160" height="26" as="geometry" />
        </mxCell>
        <mxCell id="wXAxOGZ1mU8DHfjWl0_P-83" value="+ MotorType: String" style="text;strokeColor=none;fillColor=none;align=left;verticalAlign=top;spacingLeft=4;spacingRight=4;overflow=hidden;rotatable=0;points=[[0,0.5],[1,0.5]];portConstraint=eastwest;whiteSpace=wrap;html=1;" parent="wXAxOGZ1mU8DHfjWl0_P-1" vertex="1">
          <mxGeometry y="182" width="160" height="26" as="geometry" />
        </mxCell>
        <mxCell id="wXAxOGZ1mU8DHfjWl0_P-3" value="" style="line;strokeWidth=1;fillColor=none;align=left;verticalAlign=middle;spacingTop=-1;spacingLeft=3;spacingRight=3;rotatable=0;labelPosition=right;points=[];portConstraint=eastwest;strokeColor=inherit;" parent="wXAxOGZ1mU8DHfjWl0_P-1" vertex="1">
          <mxGeometry y="208" width="160" height="8" as="geometry" />
        </mxCell>
        <mxCell id="wXAxOGZ1mU8DHfjWl0_P-4" value="+ start(): Motor" style="text;strokeColor=none;fillColor=none;align=left;verticalAlign=top;spacingLeft=4;spacingRight=4;overflow=hidden;rotatable=0;points=[[0,0.5],[1,0.5]];portConstraint=eastwest;whiteSpace=wrap;html=1;" parent="wXAxOGZ1mU8DHfjWl0_P-1" vertex="1">
          <mxGeometry y="216" width="160" height="26" as="geometry" />
        </mxCell>
        <mxCell id="wXAxOGZ1mU8DHfjWl0_P-5" value="Chassis" style="swimlane;fontStyle=1;align=center;verticalAlign=top;childLayout=stackLayout;horizontal=1;startSize=26;horizontalStack=0;resizeParent=1;resizeParentMax=0;resizeLast=0;collapsible=1;marginBottom=0;whiteSpace=wrap;html=1;" parent="1" vertex="1">
          <mxGeometry x="237.5" y="660" width="160" height="138" as="geometry" />
        </mxCell>
        <mxCell id="wXAxOGZ1mU8DHfjWl0_P-6" value="+ frameMaterial: String" style="text;strokeColor=none;fillColor=none;align=left;verticalAlign=top;spacingLeft=4;spacingRight=4;overflow=hidden;rotatable=0;points=[[0,0.5],[1,0.5]];portConstraint=eastwest;whiteSpace=wrap;html=1;" parent="wXAxOGZ1mU8DHfjWl0_P-5" vertex="1">
          <mxGeometry y="26" width="160" height="26" as="geometry" />
        </mxCell>
        <mxCell id="wXAxOGZ1mU8DHfjWl0_P-85" style="text;strokeColor=none;fillColor=none;align=left;verticalAlign=top;spacingLeft=4;spacingRight=4;overflow=hidden;rotatable=0;points=[[0,0.5],[1,0.5]];portConstraint=eastwest;whiteSpace=wrap;html=1;" parent="wXAxOGZ1mU8DHfjWl0_P-5" vertex="1">
          <mxGeometry y="52" width="160" height="26" as="geometry" />
        </mxCell>
        <mxCell id="wXAxOGZ1mU8DHfjWl0_P-84" style="text;strokeColor=none;fillColor=none;align=left;verticalAlign=top;spacingLeft=4;spacingRight=4;overflow=hidden;rotatable=0;points=[[0,0.5],[1,0.5]];portConstraint=eastwest;whiteSpace=wrap;html=1;" parent="wXAxOGZ1mU8DHfjWl0_P-5" vertex="1">
          <mxGeometry y="78" width="160" height="26" as="geometry" />
        </mxCell>
        <mxCell id="wXAxOGZ1mU8DHfjWl0_P-7" value="" style="line;strokeWidth=1;fillColor=none;align=left;verticalAlign=middle;spacingTop=-1;spacingLeft=3;spacingRight=3;rotatable=0;labelPosition=right;points=[];portConstraint=eastwest;strokeColor=inherit;" parent="wXAxOGZ1mU8DHfjWl0_P-5" vertex="1">
          <mxGeometry y="104" width="160" height="8" as="geometry" />
        </mxCell>
        <mxCell id="wXAxOGZ1mU8DHfjWl0_P-8" value="+ method(type): type" style="text;strokeColor=none;fillColor=none;align=left;verticalAlign=top;spacingLeft=4;spacingRight=4;overflow=hidden;rotatable=0;points=[[0,0.5],[1,0.5]];portConstraint=eastwest;whiteSpace=wrap;html=1;" parent="wXAxOGZ1mU8DHfjWl0_P-5" vertex="1">
          <mxGeometry y="112" width="160" height="26" as="geometry" />
        </mxCell>
        <mxCell id="wXAxOGZ1mU8DHfjWl0_P-13" value="Hatchback&lt;span style=&quot;color: rgba(0, 0, 0, 0); font-family: monospace; font-size: 0px; font-weight: 400; text-align: start; text-wrap: nowrap;&quot;&gt;%3CmxGraphModel%3E%3Croot%3E%3CmxCell%20id%3D%220%22%2F%3E%3CmxCell%20id%3D%221%22%20parent%3D%220%22%2F%3E%3CmxCell%20id%3D%222%22%20value%3D%22Type%22%20style%3D%22swimlane%3BfontStyle%3D1%3Balign%3Dcenter%3BverticalAlign%3Dtop%3BchildLayout%3DstackLayout%3Bhorizontal%3D1%3BstartSize%3D26%3BhorizontalStack%3D0%3BresizeParent%3D1%3BresizeParentMax%3D0%3BresizeLast%3D0%3Bcollapsible%3D1%3BmarginBottom%3D0%3BwhiteSpace%3Dwrap%3Bhtml%3D1%3B%22%20vertex%3D%221%22%20parent%3D%221%22%3E%3CmxGeometry%20x%3D%22490%22%20y%3D%22370%22%20width%3D%22160%22%20height%3D%2286%22%20as%3D%22geometry%22%2F%3E%3C%2FmxCell%3E%3CmxCell%20id%3D%223%22%20value%3D%22%2B%20field%3A%20type%22%20style%3D%22text%3BstrokeColor%3Dnone%3BfillColor%3Dnone%3Balign%3Dleft%3BverticalAlign%3Dtop%3BspacingLeft%3D4%3BspacingRight%3D4%3Boverflow%3Dhidden%3Brotatable%3D0%3Bpoints%3D%5B%5B0%2C0.5%5D%2C%5B1%2C0.5%5D%5D%3BportConstraint%3Deastwest%3BwhiteSpace%3Dwrap%3Bhtml%3D1%3B%22%20vertex%3D%221%22%20parent%3D%222%22%3E%3CmxGeometry%20y%3D%2226%22%20width%3D%22160%22%20height%3D%2226%22%20as%3D%22geometry%22%2F%3E%3C%2FmxCell%3E%3CmxCell%20id%3D%224%22%20value%3D%22%22%20style%3D%22line%3BstrokeWidth%3D1%3BfillColor%3Dnone%3Balign%3Dleft%3BverticalAlign%3Dmiddle%3BspacingTop%3D-1%3BspacingLeft%3D3%3BspacingRight%3D3%3Brotatable%3D0%3BlabelPosition%3Dright%3Bpoints%3D%5B%5D%3BportConstraint%3Deastwest%3BstrokeColor%3Dinherit%3B%22%20vertex%3D%221%22%20parent%3D%222%22%3E%3CmxGeometry%20y%3D%2252%22%20width%3D%22160%22%20height%3D%228%22%20as%3D%22geometry%22%2F%3E%3C%2FmxCell%3E%3CmxCell%20id%3D%225%22%20value%3D%22%2B%20method(type)%3A%20type%22%20style%3D%22text%3BstrokeColor%3Dnone%3BfillColor%3Dnone%3Balign%3Dleft%3BverticalAlign%3Dtop%3BspacingLeft%3D4%3BspacingRight%3D4%3Boverflow%3Dhidden%3Brotatable%3D0%3Bpoints%3D%5B%5B0%2C0.5%5D%2C%5B1%2C0.5%5D%5D%3BportConstraint%3Deastwest%3BwhiteSpace%3Dwrap%3Bhtml%3D1%3B%22%20vertex%3D%221%22%20parent%3D%222%22%3E%3CmxGeometry%20y%3D%2260%22%20width%3D%22160%22%20height%3D%2226%22%20as%3D%22geometry%22%2F%3E%3C%2FmxCell%3E%3C%2Froot%3E%3C%2FmxGraphModel%3E&lt;/span&gt;" style="swimlane;fontStyle=1;align=center;verticalAlign=top;childLayout=stackLayout;horizontal=1;startSize=26;horizontalStack=0;resizeParent=1;resizeParentMax=0;resizeLast=0;collapsible=1;marginBottom=0;whiteSpace=wrap;html=1;" parent="1" vertex="1">
          <mxGeometry x="-290" y="124" width="160" height="86" as="geometry" />
        </mxCell>
        <mxCell id="wXAxOGZ1mU8DHfjWl0_P-14" value="+ field: type" style="text;strokeColor=none;fillColor=none;align=left;verticalAlign=top;spacingLeft=4;spacingRight=4;overflow=hidden;rotatable=0;points=[[0,0.5],[1,0.5]];portConstraint=eastwest;whiteSpace=wrap;html=1;" parent="wXAxOGZ1mU8DHfjWl0_P-13" vertex="1">
          <mxGeometry y="26" width="160" height="26" as="geometry" />
        </mxCell>
        <mxCell id="wXAxOGZ1mU8DHfjWl0_P-15" value="" style="line;strokeWidth=1;fillColor=none;align=left;verticalAlign=middle;spacingTop=-1;spacingLeft=3;spacingRight=3;rotatable=0;labelPosition=right;points=[];portConstraint=eastwest;strokeColor=inherit;" parent="wXAxOGZ1mU8DHfjWl0_P-13" vertex="1">
          <mxGeometry y="52" width="160" height="8" as="geometry" />
        </mxCell>
        <mxCell id="wXAxOGZ1mU8DHfjWl0_P-16" value="+ method(type): type" style="text;strokeColor=none;fillColor=none;align=left;verticalAlign=top;spacingLeft=4;spacingRight=4;overflow=hidden;rotatable=0;points=[[0,0.5],[1,0.5]];portConstraint=eastwest;whiteSpace=wrap;html=1;" parent="wXAxOGZ1mU8DHfjWl0_P-13" vertex="1">
          <mxGeometry y="60" width="160" height="26" as="geometry" />
        </mxCell>
        <mxCell id="wXAxOGZ1mU8DHfjWl0_P-30" value="Car" style="swimlane;fontStyle=1;align=center;verticalAlign=top;childLayout=stackLayout;horizontal=1;startSize=26;horizontalStack=0;resizeParent=1;resizeParentMax=0;resizeLast=0;collapsible=1;marginBottom=0;whiteSpace=wrap;html=1;" parent="1" vertex="1">
          <mxGeometry x="360" y="336" width="160" height="190" as="geometry" />
        </mxCell>
        <mxCell id="wXAxOGZ1mU8DHfjWl0_P-31" value="+ brand: String" style="text;strokeColor=none;fillColor=none;align=left;verticalAlign=top;spacingLeft=4;spacingRight=4;overflow=hidden;rotatable=0;points=[[0,0.5],[1,0.5]];portConstraint=eastwest;whiteSpace=wrap;html=1;" parent="wXAxOGZ1mU8DHfjWl0_P-30" vertex="1">
          <mxGeometry y="26" width="160" height="26" as="geometry" />
        </mxCell>
        <mxCell id="wXAxOGZ1mU8DHfjWl0_P-80" value="+ tires: int" style="text;strokeColor=none;fillColor=none;align=left;verticalAlign=top;spacingLeft=4;spacingRight=4;overflow=hidden;rotatable=0;points=[[0,0.5],[1,0.5]];portConstraint=eastwest;whiteSpace=wrap;html=1;" parent="wXAxOGZ1mU8DHfjWl0_P-30" vertex="1">
          <mxGeometry y="52" width="160" height="26" as="geometry" />
        </mxCell>
        <mxCell id="wXAxOGZ1mU8DHfjWl0_P-111" value="+ drive: String" style="text;strokeColor=none;fillColor=none;align=left;verticalAlign=top;spacingLeft=4;spacingRight=4;overflow=hidden;rotatable=0;points=[[0,0.5],[1,0.5]];portConstraint=eastwest;whiteSpace=wrap;html=1;" parent="wXAxOGZ1mU8DHfjWl0_P-30" vertex="1">
          <mxGeometry y="78" width="160" height="26" as="geometry" />
        </mxCell>
        <mxCell id="wXAxOGZ1mU8DHfjWl0_P-82" value="+ towBar: bool" style="text;strokeColor=none;fillColor=none;align=left;verticalAlign=top;spacingLeft=4;spacingRight=4;overflow=hidden;rotatable=0;points=[[0,0.5],[1,0.5]];portConstraint=eastwest;whiteSpace=wrap;html=1;" parent="wXAxOGZ1mU8DHfjWl0_P-30" vertex="1">
          <mxGeometry y="104" width="160" height="26" as="geometry" />
        </mxCell>
        <mxCell id="wXAxOGZ1mU8DHfjWl0_P-112" value="+ seats: int" style="text;strokeColor=none;fillColor=none;align=left;verticalAlign=top;spacingLeft=4;spacingRight=4;overflow=hidden;rotatable=0;points=[[0,0.5],[1,0.5]];portConstraint=eastwest;whiteSpace=wrap;html=1;" parent="wXAxOGZ1mU8DHfjWl0_P-30" vertex="1">
          <mxGeometry y="130" width="160" height="26" as="geometry" />
        </mxCell>
        <mxCell id="wXAxOGZ1mU8DHfjWl0_P-32" value="" style="line;strokeWidth=1;fillColor=none;align=left;verticalAlign=middle;spacingTop=-1;spacingLeft=3;spacingRight=3;rotatable=0;labelPosition=right;points=[];portConstraint=eastwest;strokeColor=inherit;" parent="wXAxOGZ1mU8DHfjWl0_P-30" vertex="1">
          <mxGeometry y="156" width="160" height="8" as="geometry" />
        </mxCell>
        <mxCell id="wXAxOGZ1mU8DHfjWl0_P-33" value="+ method(type): type" style="text;strokeColor=none;fillColor=none;align=left;verticalAlign=top;spacingLeft=4;spacingRight=4;overflow=hidden;rotatable=0;points=[[0,0.5],[1,0.5]];portConstraint=eastwest;whiteSpace=wrap;html=1;" parent="wXAxOGZ1mU8DHfjWl0_P-30" vertex="1">
          <mxGeometry y="164" width="160" height="26" as="geometry" />
        </mxCell>
        <mxCell id="wXAxOGZ1mU8DHfjWl0_P-38" value="Sedan" style="swimlane;fontStyle=1;align=center;verticalAlign=top;childLayout=stackLayout;horizontal=1;startSize=26;horizontalStack=0;resizeParent=1;resizeParentMax=0;resizeLast=0;collapsible=1;marginBottom=0;whiteSpace=wrap;html=1;" parent="1" vertex="1">
          <mxGeometry x="-290" y="234" width="160" height="86" as="geometry" />
        </mxCell>
        <mxCell id="wXAxOGZ1mU8DHfjWl0_P-39" value="+ field: type" style="text;strokeColor=none;fillColor=none;align=left;verticalAlign=top;spacingLeft=4;spacingRight=4;overflow=hidden;rotatable=0;points=[[0,0.5],[1,0.5]];portConstraint=eastwest;whiteSpace=wrap;html=1;" parent="wXAxOGZ1mU8DHfjWl0_P-38" vertex="1">
          <mxGeometry y="26" width="160" height="26" as="geometry" />
        </mxCell>
        <mxCell id="wXAxOGZ1mU8DHfjWl0_P-40" value="" style="line;strokeWidth=1;fillColor=none;align=left;verticalAlign=middle;spacingTop=-1;spacingLeft=3;spacingRight=3;rotatable=0;labelPosition=right;points=[];portConstraint=eastwest;strokeColor=inherit;" parent="wXAxOGZ1mU8DHfjWl0_P-38" vertex="1">
          <mxGeometry y="52" width="160" height="8" as="geometry" />
        </mxCell>
        <mxCell id="wXAxOGZ1mU8DHfjWl0_P-41" value="+ method(type): type" style="text;strokeColor=none;fillColor=none;align=left;verticalAlign=top;spacingLeft=4;spacingRight=4;overflow=hidden;rotatable=0;points=[[0,0.5],[1,0.5]];portConstraint=eastwest;whiteSpace=wrap;html=1;" parent="wXAxOGZ1mU8DHfjWl0_P-38" vertex="1">
          <mxGeometry y="60" width="160" height="26" as="geometry" />
        </mxCell>
        <mxCell id="wXAxOGZ1mU8DHfjWl0_P-42" value="Stationwagon" style="swimlane;fontStyle=1;align=center;verticalAlign=top;childLayout=stackLayout;horizontal=1;startSize=26;horizontalStack=0;resizeParent=1;resizeParentMax=0;resizeLast=0;collapsible=1;marginBottom=0;whiteSpace=wrap;html=1;" parent="1" vertex="1">
          <mxGeometry x="-290" y="-100" width="160" height="86" as="geometry" />
        </mxCell>
        <mxCell id="wXAxOGZ1mU8DHfjWl0_P-43" value="+ field: type" style="text;strokeColor=none;fillColor=none;align=left;verticalAlign=top;spacingLeft=4;spacingRight=4;overflow=hidden;rotatable=0;points=[[0,0.5],[1,0.5]];portConstraint=eastwest;whiteSpace=wrap;html=1;" parent="wXAxOGZ1mU8DHfjWl0_P-42" vertex="1">
          <mxGeometry y="26" width="160" height="26" as="geometry" />
        </mxCell>
        <mxCell id="wXAxOGZ1mU8DHfjWl0_P-44" value="" style="line;strokeWidth=1;fillColor=none;align=left;verticalAlign=middle;spacingTop=-1;spacingLeft=3;spacingRight=3;rotatable=0;labelPosition=right;points=[];portConstraint=eastwest;strokeColor=inherit;" parent="wXAxOGZ1mU8DHfjWl0_P-42" vertex="1">
          <mxGeometry y="52" width="160" height="8" as="geometry" />
        </mxCell>
        <mxCell id="wXAxOGZ1mU8DHfjWl0_P-45" value="+ method(type): type" style="text;strokeColor=none;fillColor=none;align=left;verticalAlign=top;spacingLeft=4;spacingRight=4;overflow=hidden;rotatable=0;points=[[0,0.5],[1,0.5]];portConstraint=eastwest;whiteSpace=wrap;html=1;" parent="wXAxOGZ1mU8DHfjWl0_P-42" vertex="1">
          <mxGeometry y="60" width="160" height="26" as="geometry" />
        </mxCell>
        <mxCell id="wXAxOGZ1mU8DHfjWl0_P-46" value="MPV" style="swimlane;fontStyle=1;align=center;verticalAlign=top;childLayout=stackLayout;horizontal=1;startSize=26;horizontalStack=0;resizeParent=1;resizeParentMax=0;resizeLast=0;collapsible=1;marginBottom=0;whiteSpace=wrap;html=1;" parent="1" vertex="1">
          <mxGeometry x="-290" y="454" width="160" height="86" as="geometry" />
        </mxCell>
        <mxCell id="wXAxOGZ1mU8DHfjWl0_P-47" value="+ field: type" style="text;strokeColor=none;fillColor=none;align=left;verticalAlign=top;spacingLeft=4;spacingRight=4;overflow=hidden;rotatable=0;points=[[0,0.5],[1,0.5]];portConstraint=eastwest;whiteSpace=wrap;html=1;" parent="wXAxOGZ1mU8DHfjWl0_P-46" vertex="1">
          <mxGeometry y="26" width="160" height="26" as="geometry" />
        </mxCell>
        <mxCell id="wXAxOGZ1mU8DHfjWl0_P-48" value="" style="line;strokeWidth=1;fillColor=none;align=left;verticalAlign=middle;spacingTop=-1;spacingLeft=3;spacingRight=3;rotatable=0;labelPosition=right;points=[];portConstraint=eastwest;strokeColor=inherit;" parent="wXAxOGZ1mU8DHfjWl0_P-46" vertex="1">
          <mxGeometry y="52" width="160" height="8" as="geometry" />
        </mxCell>
        <mxCell id="wXAxOGZ1mU8DHfjWl0_P-49" value="+ method(type): type" style="text;strokeColor=none;fillColor=none;align=left;verticalAlign=top;spacingLeft=4;spacingRight=4;overflow=hidden;rotatable=0;points=[[0,0.5],[1,0.5]];portConstraint=eastwest;whiteSpace=wrap;html=1;" parent="wXAxOGZ1mU8DHfjWl0_P-46" vertex="1">
          <mxGeometry y="60" width="160" height="26" as="geometry" />
        </mxCell>
        <mxCell id="wXAxOGZ1mU8DHfjWl0_P-50" value="SUV" style="swimlane;fontStyle=1;align=center;verticalAlign=top;childLayout=stackLayout;horizontal=1;startSize=26;horizontalStack=0;resizeParent=1;resizeParentMax=0;resizeLast=0;collapsible=1;marginBottom=0;whiteSpace=wrap;html=1;" parent="1" vertex="1">
          <mxGeometry x="-290" y="564" width="160" height="86" as="geometry" />
        </mxCell>
        <mxCell id="wXAxOGZ1mU8DHfjWl0_P-51" value="+ field: type" style="text;strokeColor=none;fillColor=none;align=left;verticalAlign=top;spacingLeft=4;spacingRight=4;overflow=hidden;rotatable=0;points=[[0,0.5],[1,0.5]];portConstraint=eastwest;whiteSpace=wrap;html=1;" parent="wXAxOGZ1mU8DHfjWl0_P-50" vertex="1">
          <mxGeometry y="26" width="160" height="26" as="geometry" />
        </mxCell>
        <mxCell id="wXAxOGZ1mU8DHfjWl0_P-52" value="" style="line;strokeWidth=1;fillColor=none;align=left;verticalAlign=middle;spacingTop=-1;spacingLeft=3;spacingRight=3;rotatable=0;labelPosition=right;points=[];portConstraint=eastwest;strokeColor=inherit;" parent="wXAxOGZ1mU8DHfjWl0_P-50" vertex="1">
          <mxGeometry y="52" width="160" height="8" as="geometry" />
        </mxCell>
        <mxCell id="wXAxOGZ1mU8DHfjWl0_P-53" value="+ method(type): type" style="text;strokeColor=none;fillColor=none;align=left;verticalAlign=top;spacingLeft=4;spacingRight=4;overflow=hidden;rotatable=0;points=[[0,0.5],[1,0.5]];portConstraint=eastwest;whiteSpace=wrap;html=1;" parent="wXAxOGZ1mU8DHfjWl0_P-50" vertex="1">
          <mxGeometry y="60" width="160" height="26" as="geometry" />
        </mxCell>
        <mxCell id="wXAxOGZ1mU8DHfjWl0_P-58" value="Cabrio" style="swimlane;fontStyle=1;align=center;verticalAlign=top;childLayout=stackLayout;horizontal=1;startSize=26;horizontalStack=0;resizeParent=1;resizeParentMax=0;resizeLast=0;collapsible=1;marginBottom=0;whiteSpace=wrap;html=1;" parent="1" vertex="1">
          <mxGeometry x="-290" y="14" width="160" height="86" as="geometry" />
        </mxCell>
        <mxCell id="wXAxOGZ1mU8DHfjWl0_P-59" value="+ field: type" style="text;strokeColor=none;fillColor=none;align=left;verticalAlign=top;spacingLeft=4;spacingRight=4;overflow=hidden;rotatable=0;points=[[0,0.5],[1,0.5]];portConstraint=eastwest;whiteSpace=wrap;html=1;" parent="wXAxOGZ1mU8DHfjWl0_P-58" vertex="1">
          <mxGeometry y="26" width="160" height="26" as="geometry" />
        </mxCell>
        <mxCell id="wXAxOGZ1mU8DHfjWl0_P-60" value="" style="line;strokeWidth=1;fillColor=none;align=left;verticalAlign=middle;spacingTop=-1;spacingLeft=3;spacingRight=3;rotatable=0;labelPosition=right;points=[];portConstraint=eastwest;strokeColor=inherit;" parent="wXAxOGZ1mU8DHfjWl0_P-58" vertex="1">
          <mxGeometry y="52" width="160" height="8" as="geometry" />
        </mxCell>
        <mxCell id="wXAxOGZ1mU8DHfjWl0_P-61" value="+ method(type): type" style="text;strokeColor=none;fillColor=none;align=left;verticalAlign=top;spacingLeft=4;spacingRight=4;overflow=hidden;rotatable=0;points=[[0,0.5],[1,0.5]];portConstraint=eastwest;whiteSpace=wrap;html=1;" parent="wXAxOGZ1mU8DHfjWl0_P-58" vertex="1">
          <mxGeometry y="60" width="160" height="26" as="geometry" />
        </mxCell>
        <mxCell id="wXAxOGZ1mU8DHfjWl0_P-62" value="4x4" style="swimlane;fontStyle=1;align=center;verticalAlign=top;childLayout=stackLayout;horizontal=1;startSize=26;horizontalStack=0;resizeParent=1;resizeParentMax=0;resizeLast=0;collapsible=1;marginBottom=0;whiteSpace=wrap;html=1;" parent="1" vertex="1">
          <mxGeometry x="-290" y="788" width="160" height="86" as="geometry" />
        </mxCell>
        <mxCell id="wXAxOGZ1mU8DHfjWl0_P-63" value="+ field: type" style="text;strokeColor=none;fillColor=none;align=left;verticalAlign=top;spacingLeft=4;spacingRight=4;overflow=hidden;rotatable=0;points=[[0,0.5],[1,0.5]];portConstraint=eastwest;whiteSpace=wrap;html=1;" parent="wXAxOGZ1mU8DHfjWl0_P-62" vertex="1">
          <mxGeometry y="26" width="160" height="26" as="geometry" />
        </mxCell>
        <mxCell id="wXAxOGZ1mU8DHfjWl0_P-64" value="" style="line;strokeWidth=1;fillColor=none;align=left;verticalAlign=middle;spacingTop=-1;spacingLeft=3;spacingRight=3;rotatable=0;labelPosition=right;points=[];portConstraint=eastwest;strokeColor=inherit;" parent="wXAxOGZ1mU8DHfjWl0_P-62" vertex="1">
          <mxGeometry y="52" width="160" height="8" as="geometry" />
        </mxCell>
        <mxCell id="wXAxOGZ1mU8DHfjWl0_P-65" value="+ method(type): type" style="text;strokeColor=none;fillColor=none;align=left;verticalAlign=top;spacingLeft=4;spacingRight=4;overflow=hidden;rotatable=0;points=[[0,0.5],[1,0.5]];portConstraint=eastwest;whiteSpace=wrap;html=1;" parent="wXAxOGZ1mU8DHfjWl0_P-62" vertex="1">
          <mxGeometry y="60" width="160" height="26" as="geometry" />
        </mxCell>
        <mxCell id="wXAxOGZ1mU8DHfjWl0_P-66" value="Ute" style="swimlane;fontStyle=1;align=center;verticalAlign=top;childLayout=stackLayout;horizontal=1;startSize=26;horizontalStack=0;resizeParent=1;resizeParentMax=0;resizeLast=0;collapsible=1;marginBottom=0;whiteSpace=wrap;html=1;" parent="1" vertex="1">
          <mxGeometry x="-290" y="894" width="160" height="86" as="geometry" />
        </mxCell>
        <mxCell id="wXAxOGZ1mU8DHfjWl0_P-67" value="+ field: type" style="text;strokeColor=none;fillColor=none;align=left;verticalAlign=top;spacingLeft=4;spacingRight=4;overflow=hidden;rotatable=0;points=[[0,0.5],[1,0.5]];portConstraint=eastwest;whiteSpace=wrap;html=1;" parent="wXAxOGZ1mU8DHfjWl0_P-66" vertex="1">
          <mxGeometry y="26" width="160" height="26" as="geometry" />
        </mxCell>
        <mxCell id="wXAxOGZ1mU8DHfjWl0_P-68" value="" style="line;strokeWidth=1;fillColor=none;align=left;verticalAlign=middle;spacingTop=-1;spacingLeft=3;spacingRight=3;rotatable=0;labelPosition=right;points=[];portConstraint=eastwest;strokeColor=inherit;" parent="wXAxOGZ1mU8DHfjWl0_P-66" vertex="1">
          <mxGeometry y="52" width="160" height="8" as="geometry" />
        </mxCell>
        <mxCell id="wXAxOGZ1mU8DHfjWl0_P-69" value="+ method(type): type" style="text;strokeColor=none;fillColor=none;align=left;verticalAlign=top;spacingLeft=4;spacingRight=4;overflow=hidden;rotatable=0;points=[[0,0.5],[1,0.5]];portConstraint=eastwest;whiteSpace=wrap;html=1;" parent="wXAxOGZ1mU8DHfjWl0_P-66" vertex="1">
          <mxGeometry y="60" width="160" height="26" as="geometry" />
        </mxCell>
        <mxCell id="wXAxOGZ1mU8DHfjWl0_P-70" value="Pick-up" style="swimlane;fontStyle=1;align=center;verticalAlign=top;childLayout=stackLayout;horizontal=1;startSize=26;horizontalStack=0;resizeParent=1;resizeParentMax=0;resizeLast=0;collapsible=1;marginBottom=0;whiteSpace=wrap;html=1;" parent="1" vertex="1">
          <mxGeometry x="-290" y="671" width="160" height="86" as="geometry" />
        </mxCell>
        <mxCell id="wXAxOGZ1mU8DHfjWl0_P-71" value="+ field: type" style="text;strokeColor=none;fillColor=none;align=left;verticalAlign=top;spacingLeft=4;spacingRight=4;overflow=hidden;rotatable=0;points=[[0,0.5],[1,0.5]];portConstraint=eastwest;whiteSpace=wrap;html=1;" parent="wXAxOGZ1mU8DHfjWl0_P-70" vertex="1">
          <mxGeometry y="26" width="160" height="26" as="geometry" />
        </mxCell>
        <mxCell id="wXAxOGZ1mU8DHfjWl0_P-72" value="" style="line;strokeWidth=1;fillColor=none;align=left;verticalAlign=middle;spacingTop=-1;spacingLeft=3;spacingRight=3;rotatable=0;labelPosition=right;points=[];portConstraint=eastwest;strokeColor=inherit;" parent="wXAxOGZ1mU8DHfjWl0_P-70" vertex="1">
          <mxGeometry y="52" width="160" height="8" as="geometry" />
        </mxCell>
        <mxCell id="wXAxOGZ1mU8DHfjWl0_P-73" value="+ method(type): type" style="text;strokeColor=none;fillColor=none;align=left;verticalAlign=top;spacingLeft=4;spacingRight=4;overflow=hidden;rotatable=0;points=[[0,0.5],[1,0.5]];portConstraint=eastwest;whiteSpace=wrap;html=1;" parent="wXAxOGZ1mU8DHfjWl0_P-70" vertex="1">
          <mxGeometry y="60" width="160" height="26" as="geometry" />
        </mxCell>
        <mxCell id="wXAxOGZ1mU8DHfjWl0_P-74" value="Coupe" style="swimlane;fontStyle=1;align=center;verticalAlign=top;childLayout=stackLayout;horizontal=1;startSize=26;horizontalStack=0;resizeParent=1;resizeParentMax=0;resizeLast=0;collapsible=1;marginBottom=0;whiteSpace=wrap;html=1;" parent="1" vertex="1">
          <mxGeometry x="-290" y="344" width="160" height="86" as="geometry" />
        </mxCell>
        <mxCell id="wXAxOGZ1mU8DHfjWl0_P-75" value="+ field: type" style="text;strokeColor=none;fillColor=none;align=left;verticalAlign=top;spacingLeft=4;spacingRight=4;overflow=hidden;rotatable=0;points=[[0,0.5],[1,0.5]];portConstraint=eastwest;whiteSpace=wrap;html=1;" parent="wXAxOGZ1mU8DHfjWl0_P-74" vertex="1">
          <mxGeometry y="26" width="160" height="26" as="geometry" />
        </mxCell>
        <mxCell id="wXAxOGZ1mU8DHfjWl0_P-76" value="" style="line;strokeWidth=1;fillColor=none;align=left;verticalAlign=middle;spacingTop=-1;spacingLeft=3;spacingRight=3;rotatable=0;labelPosition=right;points=[];portConstraint=eastwest;strokeColor=inherit;" parent="wXAxOGZ1mU8DHfjWl0_P-74" vertex="1">
          <mxGeometry y="52" width="160" height="8" as="geometry" />
        </mxCell>
        <mxCell id="wXAxOGZ1mU8DHfjWl0_P-77" value="+ method(type): type" style="text;strokeColor=none;fillColor=none;align=left;verticalAlign=top;spacingLeft=4;spacingRight=4;overflow=hidden;rotatable=0;points=[[0,0.5],[1,0.5]];portConstraint=eastwest;whiteSpace=wrap;html=1;" parent="wXAxOGZ1mU8DHfjWl0_P-74" vertex="1">
          <mxGeometry y="60" width="160" height="26" as="geometry" />
        </mxCell>
        <mxCell id="wXAxOGZ1mU8DHfjWl0_P-86" value="Systems" style="swimlane;fontStyle=1;align=center;verticalAlign=top;childLayout=stackLayout;horizontal=1;startSize=26;horizontalStack=0;resizeParent=1;resizeParentMax=0;resizeLast=0;collapsible=1;marginBottom=0;whiteSpace=wrap;html=1;" parent="1" vertex="1">
          <mxGeometry x="680" y="660" width="160" height="320" as="geometry" />
        </mxCell>
        <mxCell id="wXAxOGZ1mU8DHfjWl0_P-87" value="+ parkassist: bool" style="text;strokeColor=none;fillColor=none;align=left;verticalAlign=top;spacingLeft=4;spacingRight=4;overflow=hidden;rotatable=0;points=[[0,0.5],[1,0.5]];portConstraint=eastwest;whiteSpace=wrap;html=1;" parent="wXAxOGZ1mU8DHfjWl0_P-86" vertex="1">
          <mxGeometry y="26" width="160" height="26" as="geometry" />
        </mxCell>
        <mxCell id="wXAxOGZ1mU8DHfjWl0_P-88" value="+ ABS: bool" style="text;strokeColor=none;fillColor=none;align=left;verticalAlign=top;spacingLeft=4;spacingRight=4;overflow=hidden;rotatable=0;points=[[0,0.5],[1,0.5]];portConstraint=eastwest;whiteSpace=wrap;html=1;" parent="wXAxOGZ1mU8DHfjWl0_P-86" vertex="1">
          <mxGeometry y="52" width="160" height="26" as="geometry" />
        </mxCell>
        <mxCell id="wXAxOGZ1mU8DHfjWl0_P-89" value="+ TCS: bool" style="text;strokeColor=none;fillColor=none;align=left;verticalAlign=top;spacingLeft=4;spacingRight=4;overflow=hidden;rotatable=0;points=[[0,0.5],[1,0.5]];portConstraint=eastwest;whiteSpace=wrap;html=1;" parent="wXAxOGZ1mU8DHfjWl0_P-86" vertex="1">
          <mxGeometry y="78" width="160" height="26" as="geometry" />
        </mxCell>
        <mxCell id="wXAxOGZ1mU8DHfjWl0_P-92" value="+ ISA: bool" style="text;strokeColor=none;fillColor=none;align=left;verticalAlign=top;spacingLeft=4;spacingRight=4;overflow=hidden;rotatable=0;points=[[0,0.5],[1,0.5]];portConstraint=eastwest;whiteSpace=wrap;html=1;" parent="wXAxOGZ1mU8DHfjWl0_P-86" vertex="1">
          <mxGeometry y="104" width="160" height="26" as="geometry" />
        </mxCell>
        <mxCell id="wXAxOGZ1mU8DHfjWl0_P-95" value="+ Lane Assist: bool" style="text;strokeColor=none;fillColor=none;align=left;verticalAlign=top;spacingLeft=4;spacingRight=4;overflow=hidden;rotatable=0;points=[[0,0.5],[1,0.5]];portConstraint=eastwest;whiteSpace=wrap;html=1;" parent="wXAxOGZ1mU8DHfjWl0_P-86" vertex="1">
          <mxGeometry y="130" width="160" height="26" as="geometry" />
        </mxCell>
        <mxCell id="wXAxOGZ1mU8DHfjWl0_P-94" value="+ Start-Stop: bool" style="text;strokeColor=none;fillColor=none;align=left;verticalAlign=top;spacingLeft=4;spacingRight=4;overflow=hidden;rotatable=0;points=[[0,0.5],[1,0.5]];portConstraint=eastwest;whiteSpace=wrap;html=1;" parent="wXAxOGZ1mU8DHfjWl0_P-86" vertex="1">
          <mxGeometry y="156" width="160" height="26" as="geometry" />
        </mxCell>
        <mxCell id="wXAxOGZ1mU8DHfjWl0_P-93" value="+ Cruise Control: bool" style="text;strokeColor=none;fillColor=none;align=left;verticalAlign=top;spacingLeft=4;spacingRight=4;overflow=hidden;rotatable=0;points=[[0,0.5],[1,0.5]];portConstraint=eastwest;whiteSpace=wrap;html=1;" parent="wXAxOGZ1mU8DHfjWl0_P-86" vertex="1">
          <mxGeometry y="182" width="160" height="26" as="geometry" />
        </mxCell>
        <mxCell id="wXAxOGZ1mU8DHfjWl0_P-97" value="+ ACC: bool" style="text;strokeColor=none;fillColor=none;align=left;verticalAlign=top;spacingLeft=4;spacingRight=4;overflow=hidden;rotatable=0;points=[[0,0.5],[1,0.5]];portConstraint=eastwest;whiteSpace=wrap;html=1;" parent="wXAxOGZ1mU8DHfjWl0_P-86" vertex="1">
          <mxGeometry y="208" width="160" height="26" as="geometry" />
        </mxCell>
        <mxCell id="wXAxOGZ1mU8DHfjWl0_P-96" value="+ AEB: bool" style="text;strokeColor=none;fillColor=none;align=left;verticalAlign=top;spacingLeft=4;spacingRight=4;overflow=hidden;rotatable=0;points=[[0,0.5],[1,0.5]];portConstraint=eastwest;whiteSpace=wrap;html=1;" parent="wXAxOGZ1mU8DHfjWl0_P-86" vertex="1">
          <mxGeometry y="234" width="160" height="26" as="geometry" />
        </mxCell>
        <mxCell id="wXAxOGZ1mU8DHfjWl0_P-98" style="text;strokeColor=none;fillColor=none;align=left;verticalAlign=top;spacingLeft=4;spacingRight=4;overflow=hidden;rotatable=0;points=[[0,0.5],[1,0.5]];portConstraint=eastwest;whiteSpace=wrap;html=1;" parent="wXAxOGZ1mU8DHfjWl0_P-86" vertex="1">
          <mxGeometry y="260" width="160" height="26" as="geometry" />
        </mxCell>
        <mxCell id="wXAxOGZ1mU8DHfjWl0_P-90" value="" style="line;strokeWidth=1;fillColor=none;align=left;verticalAlign=middle;spacingTop=-1;spacingLeft=3;spacingRight=3;rotatable=0;labelPosition=right;points=[];portConstraint=eastwest;strokeColor=inherit;" parent="wXAxOGZ1mU8DHfjWl0_P-86" vertex="1">
          <mxGeometry y="286" width="160" height="8" as="geometry" />
        </mxCell>
        <mxCell id="wXAxOGZ1mU8DHfjWl0_P-91" value="+ method(type): type" style="text;strokeColor=none;fillColor=none;align=left;verticalAlign=top;spacingLeft=4;spacingRight=4;overflow=hidden;rotatable=0;points=[[0,0.5],[1,0.5]];portConstraint=eastwest;whiteSpace=wrap;html=1;" parent="wXAxOGZ1mU8DHfjWl0_P-86" vertex="1">
          <mxGeometry y="294" width="160" height="26" as="geometry" />
        </mxCell>
        <mxCell id="wXAxOGZ1mU8DHfjWl0_P-99" value="Add-ons" style="swimlane;fontStyle=1;align=center;verticalAlign=top;childLayout=stackLayout;horizontal=1;startSize=26;horizontalStack=0;resizeParent=1;resizeParentMax=0;resizeLast=0;collapsible=1;marginBottom=0;whiteSpace=wrap;html=1;" parent="1" vertex="1">
          <mxGeometry x="450" y="660" width="160" height="268" as="geometry" />
        </mxCell>
        <mxCell id="wXAxOGZ1mU8DHfjWl0_P-100" value="+ Spoilers: String" style="text;strokeColor=none;fillColor=none;align=left;verticalAlign=top;spacingLeft=4;spacingRight=4;overflow=hidden;rotatable=0;points=[[0,0.5],[1,0.5]];portConstraint=eastwest;whiteSpace=wrap;html=1;" parent="wXAxOGZ1mU8DHfjWl0_P-99" vertex="1">
          <mxGeometry y="26" width="160" height="26" as="geometry" />
        </mxCell>
        <mxCell id="wXAxOGZ1mU8DHfjWl0_P-101" value="+ Rims: String" style="text;strokeColor=none;fillColor=none;align=left;verticalAlign=top;spacingLeft=4;spacingRight=4;overflow=hidden;rotatable=0;points=[[0,0.5],[1,0.5]];portConstraint=eastwest;whiteSpace=wrap;html=1;" parent="wXAxOGZ1mU8DHfjWl0_P-99" vertex="1">
          <mxGeometry y="52" width="160" height="26" as="geometry" />
        </mxCell>
        <mxCell id="wXAxOGZ1mU8DHfjWl0_P-106" value="+ Wrap: String" style="text;strokeColor=none;fillColor=none;align=left;verticalAlign=top;spacingLeft=4;spacingRight=4;overflow=hidden;rotatable=0;points=[[0,0.5],[1,0.5]];portConstraint=eastwest;whiteSpace=wrap;html=1;" parent="wXAxOGZ1mU8DHfjWl0_P-99" vertex="1">
          <mxGeometry y="78" width="160" height="26" as="geometry" />
        </mxCell>
        <mxCell id="wXAxOGZ1mU8DHfjWl0_P-105" value="+ Lining: String" style="text;strokeColor=none;fillColor=none;align=left;verticalAlign=top;spacingLeft=4;spacingRight=4;overflow=hidden;rotatable=0;points=[[0,0.5],[1,0.5]];portConstraint=eastwest;whiteSpace=wrap;html=1;" parent="wXAxOGZ1mU8DHfjWl0_P-99" vertex="1">
          <mxGeometry y="104" width="160" height="26" as="geometry" />
        </mxCell>
        <mxCell id="wXAxOGZ1mU8DHfjWl0_P-108" value="+ Varnish: String" style="text;strokeColor=none;fillColor=none;align=left;verticalAlign=top;spacingLeft=4;spacingRight=4;overflow=hidden;rotatable=0;points=[[0,0.5],[1,0.5]];portConstraint=eastwest;whiteSpace=wrap;html=1;" parent="wXAxOGZ1mU8DHfjWl0_P-99" vertex="1">
          <mxGeometry y="130" width="160" height="26" as="geometry" />
        </mxCell>
        <mxCell id="wXAxOGZ1mU8DHfjWl0_P-107" value="+ Tune: String" style="text;strokeColor=none;fillColor=none;align=left;verticalAlign=top;spacingLeft=4;spacingRight=4;overflow=hidden;rotatable=0;points=[[0,0.5],[1,0.5]];portConstraint=eastwest;whiteSpace=wrap;html=1;" parent="wXAxOGZ1mU8DHfjWl0_P-99" vertex="1">
          <mxGeometry y="156" width="160" height="26" as="geometry" />
        </mxCell>
        <mxCell id="wXAxOGZ1mU8DHfjWl0_P-110" value="+ Tints:&amp;nbsp;" style="text;strokeColor=none;fillColor=none;align=left;verticalAlign=top;spacingLeft=4;spacingRight=4;overflow=hidden;rotatable=0;points=[[0,0.5],[1,0.5]];portConstraint=eastwest;whiteSpace=wrap;html=1;" parent="wXAxOGZ1mU8DHfjWl0_P-99" vertex="1">
          <mxGeometry y="182" width="160" height="26" as="geometry" />
        </mxCell>
        <mxCell id="wXAxOGZ1mU8DHfjWl0_P-109" value="+ RoofRack: bool" style="text;strokeColor=none;fillColor=none;align=left;verticalAlign=top;spacingLeft=4;spacingRight=4;overflow=hidden;rotatable=0;points=[[0,0.5],[1,0.5]];portConstraint=eastwest;whiteSpace=wrap;html=1;" parent="wXAxOGZ1mU8DHfjWl0_P-99" vertex="1">
          <mxGeometry y="208" width="160" height="26" as="geometry" />
        </mxCell>
        <mxCell id="wXAxOGZ1mU8DHfjWl0_P-103" value="" style="line;strokeWidth=1;fillColor=none;align=left;verticalAlign=middle;spacingTop=-1;spacingLeft=3;spacingRight=3;rotatable=0;labelPosition=right;points=[];portConstraint=eastwest;strokeColor=inherit;" parent="wXAxOGZ1mU8DHfjWl0_P-99" vertex="1">
          <mxGeometry y="234" width="160" height="8" as="geometry" />
        </mxCell>
        <mxCell id="wXAxOGZ1mU8DHfjWl0_P-104" value="+ method(type): type" style="text;strokeColor=none;fillColor=none;align=left;verticalAlign=top;spacingLeft=4;spacingRight=4;overflow=hidden;rotatable=0;points=[[0,0.5],[1,0.5]];portConstraint=eastwest;whiteSpace=wrap;html=1;" parent="wXAxOGZ1mU8DHfjWl0_P-99" vertex="1">
          <mxGeometry y="242" width="160" height="26" as="geometry" />
        </mxCell>
        <mxCell id="TTiPwi2FUxcAyR1wRSIf-1" value="CarFactory" style="swimlane;fontStyle=1;align=center;verticalAlign=top;childLayout=stackLayout;horizontal=1;startSize=26;horizontalStack=0;resizeParent=1;resizeParentMax=0;resizeLast=0;collapsible=1;marginBottom=0;whiteSpace=wrap;html=1;" parent="1" vertex="1">
          <mxGeometry x="50" y="220" width="160" height="86" as="geometry" />
        </mxCell>
        <mxCell id="TTiPwi2FUxcAyR1wRSIf-2" value="+ field: type" style="text;strokeColor=none;fillColor=none;align=left;verticalAlign=top;spacingLeft=4;spacingRight=4;overflow=hidden;rotatable=0;points=[[0,0.5],[1,0.5]];portConstraint=eastwest;whiteSpace=wrap;html=1;" parent="TTiPwi2FUxcAyR1wRSIf-1" vertex="1">
          <mxGeometry y="26" width="160" height="26" as="geometry" />
        </mxCell>
        <mxCell id="TTiPwi2FUxcAyR1wRSIf-3" value="" style="line;strokeWidth=1;fillColor=none;align=left;verticalAlign=middle;spacingTop=-1;spacingLeft=3;spacingRight=3;rotatable=0;labelPosition=right;points=[];portConstraint=eastwest;strokeColor=inherit;" parent="TTiPwi2FUxcAyR1wRSIf-1" vertex="1">
          <mxGeometry y="52" width="160" height="8" as="geometry" />
        </mxCell>
        <mxCell id="TTiPwi2FUxcAyR1wRSIf-4" value="+ method(type): type" style="text;strokeColor=none;fillColor=none;align=left;verticalAlign=top;spacingLeft=4;spacingRight=4;overflow=hidden;rotatable=0;points=[[0,0.5],[1,0.5]];portConstraint=eastwest;whiteSpace=wrap;html=1;" parent="TTiPwi2FUxcAyR1wRSIf-1" vertex="1">
          <mxGeometry y="60" width="160" height="26" as="geometry" />
        </mxCell>
        <mxCell id="6" value="Engine" style="swimlane;fontStyle=1;align=center;verticalAlign=top;childLayout=stackLayout;horizontal=1;startSize=26;horizontalStack=0;resizeParent=1;resizeParentMax=0;resizeLast=0;collapsible=1;marginBottom=0;whiteSpace=wrap;html=1;" parent="1" vertex="1">
          <mxGeometry x="40" y="660" width="160" height="86" as="geometry" />
        </mxCell>
        <mxCell id="8" value="+ Power: int" style="text;strokeColor=none;fillColor=none;align=left;verticalAlign=top;spacingLeft=4;spacingRight=4;overflow=hidden;rotatable=0;points=[[0,0.5],[1,0.5]];portConstraint=eastwest;whiteSpace=wrap;html=1;" parent="6" vertex="1">
          <mxGeometry y="26" width="160" height="26" as="geometry" />
        </mxCell>
        <mxCell id="10" value="" style="line;strokeWidth=1;fillColor=none;align=left;verticalAlign=middle;spacingTop=-1;spacingLeft=3;spacingRight=3;rotatable=0;labelPosition=right;points=[];portConstraint=eastwest;strokeColor=inherit;" parent="6" vertex="1">
          <mxGeometry y="52" width="160" height="8" as="geometry" />
        </mxCell>
        <mxCell id="11" value="&lt;span style=&quot;color: rgb(0, 0, 0);&quot;&gt;+ start(): Motor&lt;/span&gt;" style="text;strokeColor=none;fillColor=none;align=left;verticalAlign=top;spacingLeft=4;spacingRight=4;overflow=hidden;rotatable=0;points=[[0,0.5],[1,0.5]];portConstraint=eastwest;whiteSpace=wrap;html=1;" parent="6" vertex="1">
          <mxGeometry y="60" width="160" height="26" as="geometry" />
        </mxCell>
        <mxCell id="13" value="ElectricMotor" style="swimlane;fontStyle=1;align=center;verticalAlign=top;childLayout=stackLayout;horizontal=1;startSize=26;horizontalStack=0;resizeParent=1;resizeParentMax=0;resizeLast=0;collapsible=1;marginBottom=0;whiteSpace=wrap;html=1;" parent="1" vertex="1">
          <mxGeometry x="140" y="820" width="160" height="138" as="geometry" />
        </mxCell>
        <mxCell id="19" value="+ Battery content: int" style="text;strokeColor=none;fillColor=none;align=left;verticalAlign=top;spacingLeft=4;spacingRight=4;overflow=hidden;rotatable=0;points=[[0,0.5],[1,0.5]];portConstraint=eastwest;whiteSpace=wrap;html=1;" parent="13" vertex="1">
          <mxGeometry y="26" width="160" height="26" as="geometry" />
        </mxCell>
        <mxCell id="18" value="+&amp;nbsp;" style="text;strokeColor=none;fillColor=none;align=left;verticalAlign=top;spacingLeft=4;spacingRight=4;overflow=hidden;rotatable=0;points=[[0,0.5],[1,0.5]];portConstraint=eastwest;whiteSpace=wrap;html=1;" parent="13" vertex="1">
          <mxGeometry y="52" width="160" height="26" as="geometry" />
        </mxCell>
        <mxCell id="17" style="text;strokeColor=none;fillColor=none;align=left;verticalAlign=top;spacingLeft=4;spacingRight=4;overflow=hidden;rotatable=0;points=[[0,0.5],[1,0.5]];portConstraint=eastwest;whiteSpace=wrap;html=1;" parent="13" vertex="1">
          <mxGeometry y="78" width="160" height="26" as="geometry" />
        </mxCell>
        <mxCell id="15" value="" style="line;strokeWidth=1;fillColor=none;align=left;verticalAlign=middle;spacingTop=-1;spacingLeft=3;spacingRight=3;rotatable=0;labelPosition=right;points=[];portConstraint=eastwest;strokeColor=inherit;" parent="13" vertex="1">
          <mxGeometry y="104" width="160" height="8" as="geometry" />
        </mxCell>
        <mxCell id="16" value="&lt;span style=&quot;color: rgb(0, 0, 0);&quot;&gt;+ start(): Motor&lt;/span&gt;" style="text;strokeColor=none;fillColor=none;align=left;verticalAlign=top;spacingLeft=4;spacingRight=4;overflow=hidden;rotatable=0;points=[[0,0.5],[1,0.5]];portConstraint=eastwest;whiteSpace=wrap;html=1;" parent="13" vertex="1">
          <mxGeometry y="112" width="160" height="26" as="geometry" />
        </mxCell>
        <mxCell id="SK2XQCAht_XeuMIu3WPO-25" value="" style="endArrow=block;dashed=1;endFill=0;endSize=12;html=1;rounded=0;exitX=0.5;exitY=0;exitDx=0;exitDy=0;" parent="1" source="wXAxOGZ1mU8DHfjWl0_P-5" edge="1">
          <mxGeometry width="160" relative="1" as="geometry">
            <mxPoint x="170" y="560" as="sourcePoint" />
            <mxPoint x="440" y="530" as="targetPoint" />
            <Array as="points">
              <mxPoint x="318" y="610" />
              <mxPoint x="440" y="610" />
            </Array>
          </mxGeometry>
        </mxCell>
        <mxCell id="SK2XQCAht_XeuMIu3WPO-26" value="" style="endArrow=block;dashed=1;endFill=0;endSize=12;html=1;rounded=0;exitX=0.5;exitY=0;exitDx=0;exitDy=0;" parent="1" source="6" edge="1">
          <mxGeometry width="160" relative="1" as="geometry">
            <mxPoint x="170" y="580" as="sourcePoint" />
            <mxPoint x="440" y="530" as="targetPoint" />
            <Array as="points">
              <mxPoint x="120" y="610" />
              <mxPoint x="440" y="610" />
            </Array>
          </mxGeometry>
        </mxCell>
        <mxCell id="SK2XQCAht_XeuMIu3WPO-27" value="" style="endArrow=block;dashed=1;endFill=0;endSize=12;html=1;rounded=0;exitX=0.5;exitY=0;exitDx=0;exitDy=0;" parent="1" source="wXAxOGZ1mU8DHfjWl0_P-86" edge="1">
          <mxGeometry width="160" relative="1" as="geometry">
            <mxPoint x="660" y="610" as="sourcePoint" />
            <mxPoint x="440" y="530" as="targetPoint" />
            <Array as="points">
              <mxPoint x="760" y="610" />
              <mxPoint x="440" y="610" />
            </Array>
          </mxGeometry>
        </mxCell>
        <mxCell id="SK2XQCAht_XeuMIu3WPO-43" value="" style="endArrow=block;dashed=1;endFill=0;endSize=12;html=1;rounded=0;exitX=0.5;exitY=0;exitDx=0;exitDy=0;" parent="1" source="wXAxOGZ1mU8DHfjWl0_P-99" edge="1">
          <mxGeometry width="160" relative="1" as="geometry">
            <mxPoint x="290" y="650" as="sourcePoint" />
            <mxPoint x="440" y="530" as="targetPoint" />
            <Array as="points">
              <mxPoint x="530" y="610" />
              <mxPoint x="440" y="610" />
            </Array>
          </mxGeometry>
        </mxCell>
        <mxCell id="vIck6_L0lxmdJ7Mb4Cpp-23" value="CarModel" style="swimlane;fontStyle=1;align=center;verticalAlign=top;childLayout=stackLayout;horizontal=1;startSize=26;horizontalStack=0;resizeParent=1;resizeParentMax=0;resizeLast=0;collapsible=1;marginBottom=0;whiteSpace=wrap;html=1;" parent="1" vertex="1">
          <mxGeometry x="50" y="380" width="160" height="86" as="geometry" />
        </mxCell>
        <mxCell id="vIck6_L0lxmdJ7Mb4Cpp-24" value="+ field: type" style="text;strokeColor=none;fillColor=none;align=left;verticalAlign=top;spacingLeft=4;spacingRight=4;overflow=hidden;rotatable=0;points=[[0,0.5],[1,0.5]];portConstraint=eastwest;whiteSpace=wrap;html=1;" parent="vIck6_L0lxmdJ7Mb4Cpp-23" vertex="1">
          <mxGeometry y="26" width="160" height="26" as="geometry" />
        </mxCell>
        <mxCell id="vIck6_L0lxmdJ7Mb4Cpp-25" value="" style="line;strokeWidth=1;fillColor=none;align=left;verticalAlign=middle;spacingTop=-1;spacingLeft=3;spacingRight=3;rotatable=0;labelPosition=right;points=[];portConstraint=eastwest;strokeColor=inherit;" parent="vIck6_L0lxmdJ7Mb4Cpp-23" vertex="1">
          <mxGeometry y="52" width="160" height="8" as="geometry" />
        </mxCell>
        <mxCell id="vIck6_L0lxmdJ7Mb4Cpp-26" value="+ method(type): type" style="text;strokeColor=none;fillColor=none;align=left;verticalAlign=top;spacingLeft=4;spacingRight=4;overflow=hidden;rotatable=0;points=[[0,0.5],[1,0.5]];portConstraint=eastwest;whiteSpace=wrap;html=1;" parent="vIck6_L0lxmdJ7Mb4Cpp-23" vertex="1">
          <mxGeometry y="60" width="160" height="26" as="geometry" />
        </mxCell>
        <mxCell id="vIck6_L0lxmdJ7Mb4Cpp-28" value="" style="endArrow=block;dashed=1;endFill=0;endSize=12;html=1;rounded=0;entryX=0.5;entryY=0;entryDx=0;entryDy=0;" parent="1" target="wXAxOGZ1mU8DHfjWl0_P-30" edge="1">
          <mxGeometry width="160" relative="1" as="geometry">
            <mxPoint x="210" y="234" as="sourcePoint" />
            <mxPoint x="370" y="234" as="targetPoint" />
            <Array as="points">
              <mxPoint x="440" y="234" />
            </Array>
          </mxGeometry>
        </mxCell>
        <mxCell id="vIck6_L0lxmdJ7Mb4Cpp-29" value="" style="endArrow=open;endSize=12;dashed=1;html=1;rounded=0;exitX=0.504;exitY=1.077;exitDx=0;exitDy=0;exitPerimeter=0;entryX=0.5;entryY=0;entryDx=0;entryDy=0;" parent="1" source="TTiPwi2FUxcAyR1wRSIf-4" target="vIck6_L0lxmdJ7Mb4Cpp-23" edge="1">
          <mxGeometry width="160" relative="1" as="geometry">
            <mxPoint x="90" y="360" as="sourcePoint" />
            <mxPoint x="250" y="360" as="targetPoint" />
          </mxGeometry>
        </mxCell>
        <mxCell id="vIck6_L0lxmdJ7Mb4Cpp-30" value="" style="endArrow=block;endSize=16;endFill=0;html=1;rounded=0;" parent="1" edge="1">
          <mxGeometry width="160" relative="1" as="geometry">
            <mxPoint x="-20" y="-54" as="sourcePoint" />
            <mxPoint x="-130" y="-53.71000000000001" as="targetPoint" />
          </mxGeometry>
        </mxCell>
        <mxCell id="vIck6_L0lxmdJ7Mb4Cpp-31" value="" style="endArrow=block;endSize=16;endFill=0;html=1;rounded=0;" parent="1" edge="1">
          <mxGeometry width="160" relative="1" as="geometry">
            <mxPoint x="-20" y="56.29" as="sourcePoint" />
            <mxPoint x="-130" y="56.57999999999999" as="targetPoint" />
          </mxGeometry>
        </mxCell>
        <mxCell id="vIck6_L0lxmdJ7Mb4Cpp-32" value="" style="endArrow=block;endSize=16;endFill=0;html=1;rounded=0;" parent="1" edge="1">
          <mxGeometry width="160" relative="1" as="geometry">
            <mxPoint x="-20" y="166.29" as="sourcePoint" />
            <mxPoint x="-130" y="166.57999999999998" as="targetPoint" />
          </mxGeometry>
        </mxCell>
        <mxCell id="vIck6_L0lxmdJ7Mb4Cpp-33" value="" style="endArrow=block;endSize=16;endFill=0;html=1;rounded=0;" parent="1" edge="1">
          <mxGeometry width="160" relative="1" as="geometry">
            <mxPoint x="-20" y="276.29" as="sourcePoint" />
            <mxPoint x="-130" y="276.58" as="targetPoint" />
          </mxGeometry>
        </mxCell>
        <mxCell id="vIck6_L0lxmdJ7Mb4Cpp-34" value="" style="endArrow=block;endSize=16;endFill=0;html=1;rounded=0;" parent="1" edge="1">
          <mxGeometry width="160" relative="1" as="geometry">
            <mxPoint x="-20" y="380" as="sourcePoint" />
            <mxPoint x="-130" y="380.28999999999996" as="targetPoint" />
          </mxGeometry>
        </mxCell>
        <mxCell id="vIck6_L0lxmdJ7Mb4Cpp-35" value="" style="endArrow=block;endSize=16;endFill=0;html=1;rounded=0;" parent="1" edge="1">
          <mxGeometry width="160" relative="1" as="geometry">
            <mxPoint x="-20" y="496.28999999999996" as="sourcePoint" />
            <mxPoint x="-130" y="496.5799999999999" as="targetPoint" />
          </mxGeometry>
        </mxCell>
        <mxCell id="vIck6_L0lxmdJ7Mb4Cpp-36" value="" style="endArrow=block;endSize=16;endFill=0;html=1;rounded=0;" parent="1" edge="1">
          <mxGeometry width="160" relative="1" as="geometry">
            <mxPoint x="-20" y="610" as="sourcePoint" />
            <mxPoint x="-130" y="610.29" as="targetPoint" />
          </mxGeometry>
        </mxCell>
        <mxCell id="vIck6_L0lxmdJ7Mb4Cpp-37" value="" style="endArrow=block;endSize=16;endFill=0;html=1;rounded=0;" parent="1" edge="1">
          <mxGeometry width="160" relative="1" as="geometry">
            <mxPoint x="-20" y="713.29" as="sourcePoint" />
            <mxPoint x="-130" y="713.5799999999999" as="targetPoint" />
          </mxGeometry>
        </mxCell>
        <mxCell id="vIck6_L0lxmdJ7Mb4Cpp-38" value="" style="endArrow=block;endSize=16;endFill=0;html=1;rounded=0;" parent="1" edge="1">
          <mxGeometry width="160" relative="1" as="geometry">
            <mxPoint x="-50" y="831" as="sourcePoint" />
            <mxPoint x="-130" y="830.5799999999999" as="targetPoint" />
          </mxGeometry>
        </mxCell>
        <mxCell id="vIck6_L0lxmdJ7Mb4Cpp-39" value="" style="endArrow=block;endSize=16;endFill=0;html=1;rounded=0;" parent="1" edge="1">
          <mxGeometry width="160" relative="1" as="geometry">
            <mxPoint x="-50" y="937" as="sourcePoint" />
            <mxPoint x="-130" y="936.5799999999999" as="targetPoint" />
          </mxGeometry>
        </mxCell>
        <mxCell id="vIck6_L0lxmdJ7Mb4Cpp-41" value="" style="endArrow=none;html=1;rounded=0;entryX=0;entryY=0.5;entryDx=0;entryDy=0;" parent="1" target="vIck6_L0lxmdJ7Mb4Cpp-24" edge="1">
          <mxGeometry width="50" height="50" relative="1" as="geometry">
            <mxPoint x="-20" y="380" as="sourcePoint" />
            <mxPoint x="60" y="-40" as="targetPoint" />
            <Array as="points">
              <mxPoint x="-20" y="419" />
            </Array>
          </mxGeometry>
        </mxCell>
        <mxCell id="vIck6_L0lxmdJ7Mb4Cpp-42" value="" style="endArrow=none;html=1;rounded=0;" parent="1" edge="1">
          <mxGeometry width="50" height="50" relative="1" as="geometry">
            <mxPoint x="-20" y="380" as="sourcePoint" />
            <mxPoint x="-20" y="-50" as="targetPoint" />
          </mxGeometry>
        </mxCell>
        <mxCell id="vIck6_L0lxmdJ7Mb4Cpp-43" value="" style="endArrow=none;html=1;rounded=0;" parent="1" edge="1">
          <mxGeometry width="50" height="50" relative="1" as="geometry">
            <mxPoint x="-20" y="710" as="sourcePoint" />
            <mxPoint x="-20" y="420" as="targetPoint" />
          </mxGeometry>
        </mxCell>
        <mxCell id="vIck6_L0lxmdJ7Mb4Cpp-44" value="" style="endArrow=none;html=1;rounded=0;" parent="1" edge="1">
          <mxGeometry width="50" height="50" relative="1" as="geometry">
            <mxPoint x="-50" y="930" as="sourcePoint" />
            <mxPoint x="-20" y="710" as="targetPoint" />
            <Array as="points">
              <mxPoint x="-50" y="760" />
              <mxPoint x="-20" y="760" />
            </Array>
          </mxGeometry>
        </mxCell>
        <mxCell id="vIck6_L0lxmdJ7Mb4Cpp-45" value="" style="endArrow=block;dashed=1;endFill=0;endSize=12;html=1;rounded=0;entryX=0.538;entryY=1.013;entryDx=0;entryDy=0;entryPerimeter=0;" parent="1" target="11" edge="1">
          <mxGeometry width="160" relative="1" as="geometry">
            <mxPoint x="126" y="780" as="sourcePoint" />
            <mxPoint x="250" y="790" as="targetPoint" />
          </mxGeometry>
        </mxCell>
        <mxCell id="vIck6_L0lxmdJ7Mb4Cpp-46" value="" style="endArrow=none;dashed=1;html=1;rounded=0;exitX=0.5;exitY=0;exitDx=0;exitDy=0;" parent="1" source="wXAxOGZ1mU8DHfjWl0_P-1" edge="1">
          <mxGeometry width="50" height="50" relative="1" as="geometry">
            <mxPoint x="140" y="810" as="sourcePoint" />
            <mxPoint x="130" y="780" as="targetPoint" />
            <Array as="points">
              <mxPoint x="50" y="780" />
            </Array>
          </mxGeometry>
        </mxCell>
        <mxCell id="vIck6_L0lxmdJ7Mb4Cpp-47" value="" style="endArrow=none;dashed=1;html=1;rounded=0;exitX=0.5;exitY=0;exitDx=0;exitDy=0;" parent="1" source="13" edge="1">
          <mxGeometry width="50" height="50" relative="1" as="geometry">
            <mxPoint x="140" y="810" as="sourcePoint" />
            <mxPoint x="130" y="780" as="targetPoint" />
            <Array as="points">
              <mxPoint x="220" y="780" />
            </Array>
          </mxGeometry>
        </mxCell>
        <mxCell id="vIck6_L0lxmdJ7Mb4Cpp-48" value="App" style="swimlane;fontStyle=1;align=center;verticalAlign=top;childLayout=stackLayout;horizontal=1;startSize=26;horizontalStack=0;resizeParent=1;resizeParentMax=0;resizeLast=0;collapsible=1;marginBottom=0;whiteSpace=wrap;html=1;" parent="1" vertex="1">
          <mxGeometry x="620" y="388" width="160" height="86" as="geometry" />
        </mxCell>
        <mxCell id="vIck6_L0lxmdJ7Mb4Cpp-49" value="+ field: type" style="text;strokeColor=none;fillColor=none;align=left;verticalAlign=top;spacingLeft=4;spacingRight=4;overflow=hidden;rotatable=0;points=[[0,0.5],[1,0.5]];portConstraint=eastwest;whiteSpace=wrap;html=1;" parent="vIck6_L0lxmdJ7Mb4Cpp-48" vertex="1">
          <mxGeometry y="26" width="160" height="26" as="geometry" />
        </mxCell>
        <mxCell id="vIck6_L0lxmdJ7Mb4Cpp-50" value="" style="line;strokeWidth=1;fillColor=none;align=left;verticalAlign=middle;spacingTop=-1;spacingLeft=3;spacingRight=3;rotatable=0;labelPosition=right;points=[];portConstraint=eastwest;strokeColor=inherit;" parent="vIck6_L0lxmdJ7Mb4Cpp-48" vertex="1">
          <mxGeometry y="52" width="160" height="8" as="geometry" />
        </mxCell>
        <mxCell id="vIck6_L0lxmdJ7Mb4Cpp-51" value="+ method(type): type" style="text;strokeColor=none;fillColor=none;align=left;verticalAlign=top;spacingLeft=4;spacingRight=4;overflow=hidden;rotatable=0;points=[[0,0.5],[1,0.5]];portConstraint=eastwest;whiteSpace=wrap;html=1;" parent="vIck6_L0lxmdJ7Mb4Cpp-48" vertex="1">
          <mxGeometry y="60" width="160" height="26" as="geometry" />
        </mxCell>
        <mxCell id="vIck6_L0lxmdJ7Mb4Cpp-52" value="" style="endArrow=open;endSize=12;dashed=1;html=1;rounded=0;exitX=0;exitY=0.5;exitDx=0;exitDy=0;entryX=1;entryY=0.5;entryDx=0;entryDy=0;" parent="1" source="vIck6_L0lxmdJ7Mb4Cpp-49" target="wXAxOGZ1mU8DHfjWl0_P-111" edge="1">
          <mxGeometry width="160" relative="1" as="geometry">
            <mxPoint x="190" y="470" as="sourcePoint" />
            <mxPoint x="350" y="470" as="targetPoint" />
          </mxGeometry>
        </mxCell>
        <mxCell id="vIck6_L0lxmdJ7Mb4Cpp-53" value="Car" style="html=1;whiteSpace=wrap;" parent="1" vertex="1">
          <mxGeometry x="200" y="1110" width="110" height="50" as="geometry" />
        </mxCell>
        <mxCell id="vIck6_L0lxmdJ7Mb4Cpp-54" value="Engine" style="html=1;whiteSpace=wrap;" parent="1" vertex="1">
          <mxGeometry x="360" y="1110" width="110" height="50" as="geometry" />
        </mxCell>
        <mxCell id="vIck6_L0lxmdJ7Mb4Cpp-56" value="" style="endArrow=diamond;html=1;rounded=0;exitX=-0.006;exitY=0.343;exitDx=0;exitDy=0;entryX=0.991;entryY=0.344;entryDx=0;entryDy=0;entryPerimeter=0;edgeStyle=orthogonalEdgeStyle;endFill=0;exitPerimeter=0;" parent="1" source="vIck6_L0lxmdJ7Mb4Cpp-54" target="vIck6_L0lxmdJ7Mb4Cpp-53" edge="1">
          <mxGeometry width="50" height="50" relative="1" as="geometry">
            <mxPoint x="300" y="1080" as="sourcePoint" />
            <mxPoint x="350" y="1030" as="targetPoint" />
          </mxGeometry>
        </mxCell>
        <mxCell id="vIck6_L0lxmdJ7Mb4Cpp-57" value="Chassis" style="html=1;whiteSpace=wrap;" parent="1" vertex="1">
          <mxGeometry x="50" y="1110" width="110" height="50" as="geometry" />
        </mxCell>
        <mxCell id="vIck6_L0lxmdJ7Mb4Cpp-58" value="" style="endArrow=diamond;html=1;rounded=0;exitX=1;exitY=0.25;exitDx=0;exitDy=0;entryX=0;entryY=0.25;entryDx=0;entryDy=0;edgeStyle=orthogonalEdgeStyle;endFill=0;" parent="1" source="vIck6_L0lxmdJ7Mb4Cpp-57" target="vIck6_L0lxmdJ7Mb4Cpp-53" edge="1">
          <mxGeometry width="50" height="50" relative="1" as="geometry">
            <mxPoint x="237.5" y="1200" as="sourcePoint" />
            <mxPoint x="137.5" y="1200" as="targetPoint" />
          </mxGeometry>
        </mxCell>
        <mxCell id="vIck6_L0lxmdJ7Mb4Cpp-59" value="Client" style="html=1;whiteSpace=wrap;" parent="1" vertex="1">
          <mxGeometry x="460" y="1050" width="120" height="40" as="geometry" />
        </mxCell>
        <mxCell id="vIck6_L0lxmdJ7Mb4Cpp-60" value="Trader&lt;div&gt;+SellPart()&lt;/div&gt;&lt;div&gt;+s:SellStrategy&lt;/div&gt;" style="html=1;whiteSpace=wrap;" parent="1" vertex="1">
          <mxGeometry x="920" y="1050" width="120" height="40" as="geometry" />
        </mxCell>
        <mxCell id="vIck6_L0lxmdJ7Mb4Cpp-61" value="Part" style="html=1;whiteSpace=wrap;" parent="1" vertex="1">
          <mxGeometry x="660" y="1050" width="110" height="40" as="geometry" />
        </mxCell>
        <mxCell id="vIck6_L0lxmdJ7Mb4Cpp-62" style="edgeStyle=orthogonalEdgeStyle;rounded=0;orthogonalLoop=1;jettySize=auto;html=1;exitX=0.5;exitY=1;exitDx=0;exitDy=0;" parent="1" source="vIck6_L0lxmdJ7Mb4Cpp-61" target="vIck6_L0lxmdJ7Mb4Cpp-61" edge="1">
          <mxGeometry relative="1" as="geometry" />
        </mxCell>
        <mxCell id="vIck6_L0lxmdJ7Mb4Cpp-63" value="" style="endArrow=open;html=1;rounded=0;exitX=0;exitY=0.5;exitDx=0;exitDy=0;entryX=1;entryY=0.5;entryDx=0;entryDy=0;dashed=1;dashPattern=8 8;endFill=0;" parent="1" source="vIck6_L0lxmdJ7Mb4Cpp-60" target="vIck6_L0lxmdJ7Mb4Cpp-61" edge="1">
          <mxGeometry width="50" height="50" relative="1" as="geometry">
            <mxPoint x="780" y="1130" as="sourcePoint" />
            <mxPoint x="830" y="1080" as="targetPoint" />
          </mxGeometry>
        </mxCell>
        <mxCell id="vIck6_L0lxmdJ7Mb4Cpp-64" value="Sells" style="edgeLabel;html=1;align=center;verticalAlign=middle;resizable=0;points=[];" parent="vIck6_L0lxmdJ7Mb4Cpp-63" vertex="1" connectable="0">
          <mxGeometry x="-0.0444" y="-1" relative="1" as="geometry">
            <mxPoint as="offset" />
          </mxGeometry>
        </mxCell>
        <mxCell id="vIck6_L0lxmdJ7Mb4Cpp-65" value="Tire" style="html=1;whiteSpace=wrap;" parent="1" vertex="1">
          <mxGeometry x="520" y="1130" width="110" height="40" as="geometry" />
        </mxCell>
        <mxCell id="vIck6_L0lxmdJ7Mb4Cpp-66" value="Exhaust" style="html=1;whiteSpace=wrap;" parent="1" vertex="1">
          <mxGeometry x="660" y="1130" width="110" height="40" as="geometry" />
        </mxCell>
        <mxCell id="vIck6_L0lxmdJ7Mb4Cpp-67" value="Engine" style="html=1;whiteSpace=wrap;" parent="1" vertex="1">
          <mxGeometry x="797.5" y="1130" width="110" height="40" as="geometry" />
        </mxCell>
        <mxCell id="vIck6_L0lxmdJ7Mb4Cpp-68" value="" style="endArrow=block;html=1;rounded=0;exitX=0.5;exitY=0;exitDx=0;exitDy=0;entryX=0.5;entryY=1;entryDx=0;entryDy=0;endFill=0;" parent="1" source="vIck6_L0lxmdJ7Mb4Cpp-66" target="vIck6_L0lxmdJ7Mb4Cpp-61" edge="1">
          <mxGeometry width="50" height="50" relative="1" as="geometry">
            <mxPoint x="780" y="1130" as="sourcePoint" />
            <mxPoint x="830" y="1080" as="targetPoint" />
          </mxGeometry>
        </mxCell>
        <mxCell id="vIck6_L0lxmdJ7Mb4Cpp-69" value="" style="endArrow=block;html=1;rounded=0;exitX=0.5;exitY=0;exitDx=0;exitDy=0;entryX=0.5;entryY=1;entryDx=0;entryDy=0;endFill=0;edgeStyle=orthogonalEdgeStyle;" parent="1" source="vIck6_L0lxmdJ7Mb4Cpp-67" target="vIck6_L0lxmdJ7Mb4Cpp-61" edge="1">
          <mxGeometry width="50" height="50" relative="1" as="geometry">
            <mxPoint x="780" y="1130" as="sourcePoint" />
            <mxPoint x="830" y="1080" as="targetPoint" />
          </mxGeometry>
        </mxCell>
        <mxCell id="vIck6_L0lxmdJ7Mb4Cpp-70" value="" style="endArrow=block;html=1;rounded=0;exitX=0.5;exitY=0;exitDx=0;exitDy=0;entryX=0.5;entryY=1;entryDx=0;entryDy=0;endFill=0;edgeStyle=orthogonalEdgeStyle;" parent="1" source="vIck6_L0lxmdJ7Mb4Cpp-65" target="vIck6_L0lxmdJ7Mb4Cpp-61" edge="1">
          <mxGeometry width="50" height="50" relative="1" as="geometry">
            <mxPoint x="780" y="1130" as="sourcePoint" />
            <mxPoint x="830" y="1080" as="targetPoint" />
          </mxGeometry>
        </mxCell>
        <mxCell id="vIck6_L0lxmdJ7Mb4Cpp-71" value="" style="endArrow=open;html=1;rounded=0;exitX=1;exitY=0.5;exitDx=0;exitDy=0;entryX=0;entryY=0.5;entryDx=0;entryDy=0;dashed=1;dashPattern=8 8;endFill=0;" parent="1" source="vIck6_L0lxmdJ7Mb4Cpp-59" target="vIck6_L0lxmdJ7Mb4Cpp-61" edge="1">
          <mxGeometry width="50" height="50" relative="1" as="geometry">
            <mxPoint x="940" y="1060" as="sourcePoint" />
            <mxPoint x="790" y="1060" as="targetPoint" />
          </mxGeometry>
        </mxCell>
        <mxCell id="vIck6_L0lxmdJ7Mb4Cpp-72" value="buys" style="edgeLabel;html=1;align=center;verticalAlign=middle;resizable=0;points=[];" parent="vIck6_L0lxmdJ7Mb4Cpp-71" vertex="1" connectable="0">
          <mxGeometry x="-0.0444" y="-1" relative="1" as="geometry">
            <mxPoint as="offset" />
          </mxGeometry>
        </mxCell>
        <mxCell id="vIck6_L0lxmdJ7Mb4Cpp-75" value="SellStrategy" style="html=1;whiteSpace=wrap;" parent="1" vertex="1">
          <mxGeometry x="1120" y="1050" width="120" height="40" as="geometry" />
        </mxCell>
        <mxCell id="vIck6_L0lxmdJ7Mb4Cpp-76" value="Internet" style="html=1;whiteSpace=wrap;" parent="1" vertex="1">
          <mxGeometry x="986.25" y="1130" width="110" height="40" as="geometry" />
        </mxCell>
        <mxCell id="vIck6_L0lxmdJ7Mb4Cpp-77" value="Shop" style="html=1;whiteSpace=wrap;" parent="1" vertex="1">
          <mxGeometry x="1126.25" y="1130" width="110" height="40" as="geometry" />
        </mxCell>
        <mxCell id="vIck6_L0lxmdJ7Mb4Cpp-78" value="Street" style="html=1;whiteSpace=wrap;" parent="1" vertex="1">
          <mxGeometry x="1263.75" y="1130" width="110" height="40" as="geometry" />
        </mxCell>
        <mxCell id="vIck6_L0lxmdJ7Mb4Cpp-79" value="" style="endArrow=block;html=1;rounded=0;exitX=0.5;exitY=0;exitDx=0;exitDy=0;entryX=0.5;entryY=1;entryDx=0;entryDy=0;endFill=0;edgeStyle=orthogonalEdgeStyle;" parent="1" source="vIck6_L0lxmdJ7Mb4Cpp-78" edge="1">
          <mxGeometry width="50" height="50" relative="1" as="geometry">
            <mxPoint x="1246.25" y="1130" as="sourcePoint" />
            <mxPoint x="1181.25" y="1090" as="targetPoint" />
          </mxGeometry>
        </mxCell>
        <mxCell id="vIck6_L0lxmdJ7Mb4Cpp-80" value="" style="endArrow=block;html=1;rounded=0;exitX=0.5;exitY=0;exitDx=0;exitDy=0;entryX=0.5;entryY=1;entryDx=0;entryDy=0;endFill=0;edgeStyle=orthogonalEdgeStyle;" parent="1" source="vIck6_L0lxmdJ7Mb4Cpp-76" edge="1">
          <mxGeometry width="50" height="50" relative="1" as="geometry">
            <mxPoint x="1246.25" y="1130" as="sourcePoint" />
            <mxPoint x="1181.25" y="1090" as="targetPoint" />
          </mxGeometry>
        </mxCell>
        <mxCell id="vIck6_L0lxmdJ7Mb4Cpp-81" value="" style="endArrow=diamond;html=1;rounded=0;exitX=0;exitY=0.5;exitDx=0;exitDy=0;entryX=1;entryY=0.5;entryDx=0;entryDy=0;edgeStyle=orthogonalEdgeStyle;endFill=0;" parent="1" source="vIck6_L0lxmdJ7Mb4Cpp-75" target="vIck6_L0lxmdJ7Mb4Cpp-60" edge="1">
          <mxGeometry width="50" height="50" relative="1" as="geometry">
            <mxPoint x="940" y="930" as="sourcePoint" />
            <mxPoint x="890" y="930" as="targetPoint" />
            <Array as="points">
              <mxPoint x="1100" y="1070" />
              <mxPoint x="1100" y="1070" />
            </Array>
          </mxGeometry>
        </mxCell>
        <mxCell id="7MXfpeJZ0Hmo8aoVelBx-19" value="Car" style="swimlane;fontStyle=1;align=center;verticalAlign=top;childLayout=stackLayout;horizontal=1;startSize=26;horizontalStack=0;resizeParent=1;resizeParentMax=0;resizeLast=0;collapsible=1;marginBottom=0;whiteSpace=wrap;html=1;" vertex="1" parent="1">
          <mxGeometry x="120" y="1630" width="160" height="86" as="geometry" />
        </mxCell>
        <mxCell id="7MXfpeJZ0Hmo8aoVelBx-20" value="+ field: type" style="text;strokeColor=none;fillColor=none;align=left;verticalAlign=top;spacingLeft=4;spacingRight=4;overflow=hidden;rotatable=0;points=[[0,0.5],[1,0.5]];portConstraint=eastwest;whiteSpace=wrap;html=1;" vertex="1" parent="7MXfpeJZ0Hmo8aoVelBx-19">
          <mxGeometry y="26" width="160" height="26" as="geometry" />
        </mxCell>
        <mxCell id="7MXfpeJZ0Hmo8aoVelBx-21" value="" style="line;strokeWidth=1;fillColor=none;align=left;verticalAlign=middle;spacingTop=-1;spacingLeft=3;spacingRight=3;rotatable=0;labelPosition=right;points=[];portConstraint=eastwest;strokeColor=inherit;" vertex="1" parent="7MXfpeJZ0Hmo8aoVelBx-19">
          <mxGeometry y="52" width="160" height="8" as="geometry" />
        </mxCell>
        <mxCell id="7MXfpeJZ0Hmo8aoVelBx-22" value="+ method(type): type" style="text;strokeColor=none;fillColor=none;align=left;verticalAlign=top;spacingLeft=4;spacingRight=4;overflow=hidden;rotatable=0;points=[[0,0.5],[1,0.5]];portConstraint=eastwest;whiteSpace=wrap;html=1;" vertex="1" parent="7MXfpeJZ0Hmo8aoVelBx-19">
          <mxGeometry y="60" width="160" height="26" as="geometry" />
        </mxCell>
        <mxCell id="7MXfpeJZ0Hmo8aoVelBx-143" style="edgeStyle=orthogonalEdgeStyle;rounded=0;orthogonalLoop=1;jettySize=auto;html=1;exitX=0;exitY=0.25;exitDx=0;exitDy=0;entryX=1;entryY=0.25;entryDx=0;entryDy=0;endArrow=diamond;endFill=0;endSize=17;" edge="1" parent="1" source="7MXfpeJZ0Hmo8aoVelBx-23" target="7MXfpeJZ0Hmo8aoVelBx-109">
          <mxGeometry relative="1" as="geometry" />
        </mxCell>
        <mxCell id="7MXfpeJZ0Hmo8aoVelBx-23" value="SellCommunication" style="swimlane;fontStyle=1;align=center;verticalAlign=top;childLayout=stackLayout;horizontal=1;startSize=26;horizontalStack=0;resizeParent=1;resizeParentMax=0;resizeLast=0;collapsible=1;marginBottom=0;whiteSpace=wrap;html=1;" vertex="1" parent="1">
          <mxGeometry x="770" y="1630" width="160" height="86" as="geometry" />
        </mxCell>
        <mxCell id="7MXfpeJZ0Hmo8aoVelBx-24" value="+ field: type" style="text;strokeColor=none;fillColor=none;align=left;verticalAlign=top;spacingLeft=4;spacingRight=4;overflow=hidden;rotatable=0;points=[[0,0.5],[1,0.5]];portConstraint=eastwest;whiteSpace=wrap;html=1;" vertex="1" parent="7MXfpeJZ0Hmo8aoVelBx-23">
          <mxGeometry y="26" width="160" height="26" as="geometry" />
        </mxCell>
        <mxCell id="7MXfpeJZ0Hmo8aoVelBx-25" value="" style="line;strokeWidth=1;fillColor=none;align=left;verticalAlign=middle;spacingTop=-1;spacingLeft=3;spacingRight=3;rotatable=0;labelPosition=right;points=[];portConstraint=eastwest;strokeColor=inherit;" vertex="1" parent="7MXfpeJZ0Hmo8aoVelBx-23">
          <mxGeometry y="52" width="160" height="8" as="geometry" />
        </mxCell>
        <mxCell id="7MXfpeJZ0Hmo8aoVelBx-26" value="+ method(type): type" style="text;strokeColor=none;fillColor=none;align=left;verticalAlign=top;spacingLeft=4;spacingRight=4;overflow=hidden;rotatable=0;points=[[0,0.5],[1,0.5]];portConstraint=eastwest;whiteSpace=wrap;html=1;" vertex="1" parent="7MXfpeJZ0Hmo8aoVelBx-23">
          <mxGeometry y="60" width="160" height="26" as="geometry" />
        </mxCell>
        <mxCell id="7MXfpeJZ0Hmo8aoVelBx-28" value="Engine" style="swimlane;fontStyle=1;align=center;verticalAlign=top;childLayout=stackLayout;horizontal=1;startSize=26;horizontalStack=0;resizeParent=1;resizeParentMax=0;resizeLast=0;collapsible=1;marginBottom=0;whiteSpace=wrap;html=1;" vertex="1" parent="1">
          <mxGeometry x="-295" y="1630" width="160" height="86" as="geometry" />
        </mxCell>
        <mxCell id="7MXfpeJZ0Hmo8aoVelBx-29" value="+ field: type" style="text;strokeColor=none;fillColor=none;align=left;verticalAlign=top;spacingLeft=4;spacingRight=4;overflow=hidden;rotatable=0;points=[[0,0.5],[1,0.5]];portConstraint=eastwest;whiteSpace=wrap;html=1;" vertex="1" parent="7MXfpeJZ0Hmo8aoVelBx-28">
          <mxGeometry y="26" width="160" height="26" as="geometry" />
        </mxCell>
        <mxCell id="7MXfpeJZ0Hmo8aoVelBx-30" value="" style="line;strokeWidth=1;fillColor=none;align=left;verticalAlign=middle;spacingTop=-1;spacingLeft=3;spacingRight=3;rotatable=0;labelPosition=right;points=[];portConstraint=eastwest;strokeColor=inherit;" vertex="1" parent="7MXfpeJZ0Hmo8aoVelBx-28">
          <mxGeometry y="52" width="160" height="8" as="geometry" />
        </mxCell>
        <mxCell id="7MXfpeJZ0Hmo8aoVelBx-31" value="+ method(type): type" style="text;strokeColor=none;fillColor=none;align=left;verticalAlign=top;spacingLeft=4;spacingRight=4;overflow=hidden;rotatable=0;points=[[0,0.5],[1,0.5]];portConstraint=eastwest;whiteSpace=wrap;html=1;" vertex="1" parent="7MXfpeJZ0Hmo8aoVelBx-28">
          <mxGeometry y="60" width="160" height="26" as="geometry" />
        </mxCell>
        <mxCell id="7MXfpeJZ0Hmo8aoVelBx-34" value="Chassis" style="swimlane;fontStyle=1;align=center;verticalAlign=top;childLayout=stackLayout;horizontal=1;startSize=26;horizontalStack=0;resizeParent=1;resizeParentMax=0;resizeLast=0;collapsible=1;marginBottom=0;whiteSpace=wrap;html=1;" vertex="1" parent="1">
          <mxGeometry x="370" y="2100" width="160" height="86" as="geometry" />
        </mxCell>
        <mxCell id="7MXfpeJZ0Hmo8aoVelBx-35" value="+ field: type" style="text;strokeColor=none;fillColor=none;align=left;verticalAlign=top;spacingLeft=4;spacingRight=4;overflow=hidden;rotatable=0;points=[[0,0.5],[1,0.5]];portConstraint=eastwest;whiteSpace=wrap;html=1;" vertex="1" parent="7MXfpeJZ0Hmo8aoVelBx-34">
          <mxGeometry y="26" width="160" height="26" as="geometry" />
        </mxCell>
        <mxCell id="7MXfpeJZ0Hmo8aoVelBx-36" value="" style="line;strokeWidth=1;fillColor=none;align=left;verticalAlign=middle;spacingTop=-1;spacingLeft=3;spacingRight=3;rotatable=0;labelPosition=right;points=[];portConstraint=eastwest;strokeColor=inherit;" vertex="1" parent="7MXfpeJZ0Hmo8aoVelBx-34">
          <mxGeometry y="52" width="160" height="8" as="geometry" />
        </mxCell>
        <mxCell id="7MXfpeJZ0Hmo8aoVelBx-37" value="+ method(type): type" style="text;strokeColor=none;fillColor=none;align=left;verticalAlign=top;spacingLeft=4;spacingRight=4;overflow=hidden;rotatable=0;points=[[0,0.5],[1,0.5]];portConstraint=eastwest;whiteSpace=wrap;html=1;" vertex="1" parent="7MXfpeJZ0Hmo8aoVelBx-34">
          <mxGeometry y="60" width="160" height="26" as="geometry" />
        </mxCell>
        <mxCell id="7MXfpeJZ0Hmo8aoVelBx-65" value="AddOns" style="swimlane;fontStyle=1;align=center;verticalAlign=top;childLayout=stackLayout;horizontal=1;startSize=26;horizontalStack=0;resizeParent=1;resizeParentMax=0;resizeLast=0;collapsible=1;marginBottom=0;whiteSpace=wrap;html=1;" vertex="1" parent="1">
          <mxGeometry x="-450" y="2170" width="160" height="86" as="geometry" />
        </mxCell>
        <mxCell id="7MXfpeJZ0Hmo8aoVelBx-66" value="+ field: type" style="text;strokeColor=none;fillColor=none;align=left;verticalAlign=top;spacingLeft=4;spacingRight=4;overflow=hidden;rotatable=0;points=[[0,0.5],[1,0.5]];portConstraint=eastwest;whiteSpace=wrap;html=1;" vertex="1" parent="7MXfpeJZ0Hmo8aoVelBx-65">
          <mxGeometry y="26" width="160" height="26" as="geometry" />
        </mxCell>
        <mxCell id="7MXfpeJZ0Hmo8aoVelBx-67" value="" style="line;strokeWidth=1;fillColor=none;align=left;verticalAlign=middle;spacingTop=-1;spacingLeft=3;spacingRight=3;rotatable=0;labelPosition=right;points=[];portConstraint=eastwest;strokeColor=inherit;" vertex="1" parent="7MXfpeJZ0Hmo8aoVelBx-65">
          <mxGeometry y="52" width="160" height="8" as="geometry" />
        </mxCell>
        <mxCell id="7MXfpeJZ0Hmo8aoVelBx-68" value="+ method(type): type" style="text;strokeColor=none;fillColor=none;align=left;verticalAlign=top;spacingLeft=4;spacingRight=4;overflow=hidden;rotatable=0;points=[[0,0.5],[1,0.5]];portConstraint=eastwest;whiteSpace=wrap;html=1;" vertex="1" parent="7MXfpeJZ0Hmo8aoVelBx-65">
          <mxGeometry y="60" width="160" height="26" as="geometry" />
        </mxCell>
        <mxCell id="7MXfpeJZ0Hmo8aoVelBx-70" value="Systems" style="swimlane;fontStyle=1;align=center;verticalAlign=top;childLayout=stackLayout;horizontal=1;startSize=26;horizontalStack=0;resizeParent=1;resizeParentMax=0;resizeLast=0;collapsible=1;marginBottom=0;whiteSpace=wrap;html=1;" vertex="1" parent="1">
          <mxGeometry x="557.5" y="2100" width="160" height="86" as="geometry" />
        </mxCell>
        <mxCell id="7MXfpeJZ0Hmo8aoVelBx-71" value="+ field: type" style="text;strokeColor=none;fillColor=none;align=left;verticalAlign=top;spacingLeft=4;spacingRight=4;overflow=hidden;rotatable=0;points=[[0,0.5],[1,0.5]];portConstraint=eastwest;whiteSpace=wrap;html=1;" vertex="1" parent="7MXfpeJZ0Hmo8aoVelBx-70">
          <mxGeometry y="26" width="160" height="26" as="geometry" />
        </mxCell>
        <mxCell id="7MXfpeJZ0Hmo8aoVelBx-72" value="" style="line;strokeWidth=1;fillColor=none;align=left;verticalAlign=middle;spacingTop=-1;spacingLeft=3;spacingRight=3;rotatable=0;labelPosition=right;points=[];portConstraint=eastwest;strokeColor=inherit;" vertex="1" parent="7MXfpeJZ0Hmo8aoVelBx-70">
          <mxGeometry y="52" width="160" height="8" as="geometry" />
        </mxCell>
        <mxCell id="7MXfpeJZ0Hmo8aoVelBx-73" value="+ method(type): type" style="text;strokeColor=none;fillColor=none;align=left;verticalAlign=top;spacingLeft=4;spacingRight=4;overflow=hidden;rotatable=0;points=[[0,0.5],[1,0.5]];portConstraint=eastwest;whiteSpace=wrap;html=1;" vertex="1" parent="7MXfpeJZ0Hmo8aoVelBx-70">
          <mxGeometry y="60" width="160" height="26" as="geometry" />
        </mxCell>
        <mxCell id="7MXfpeJZ0Hmo8aoVelBx-116" style="edgeStyle=orthogonalEdgeStyle;rounded=0;orthogonalLoop=1;jettySize=auto;html=1;exitX=1;exitY=0.25;exitDx=0;exitDy=0;entryX=0.5;entryY=0;entryDx=0;entryDy=0;endArrow=diamond;endFill=0;" edge="1" parent="1" source="7MXfpeJZ0Hmo8aoVelBx-75" target="7MXfpeJZ0Hmo8aoVelBx-109">
          <mxGeometry relative="1" as="geometry" />
        </mxCell>
        <mxCell id="7MXfpeJZ0Hmo8aoVelBx-75" value="Client" style="swimlane;fontStyle=1;align=center;verticalAlign=top;childLayout=stackLayout;horizontal=1;startSize=26;horizontalStack=0;resizeParent=1;resizeParentMax=0;resizeLast=0;collapsible=1;marginBottom=0;whiteSpace=wrap;html=1;" vertex="1" parent="1">
          <mxGeometry x="120" y="1440" width="160" height="86" as="geometry" />
        </mxCell>
        <mxCell id="7MXfpeJZ0Hmo8aoVelBx-76" value="+ field: type" style="text;strokeColor=none;fillColor=none;align=left;verticalAlign=top;spacingLeft=4;spacingRight=4;overflow=hidden;rotatable=0;points=[[0,0.5],[1,0.5]];portConstraint=eastwest;whiteSpace=wrap;html=1;" vertex="1" parent="7MXfpeJZ0Hmo8aoVelBx-75">
          <mxGeometry y="26" width="160" height="26" as="geometry" />
        </mxCell>
        <mxCell id="7MXfpeJZ0Hmo8aoVelBx-77" value="" style="line;strokeWidth=1;fillColor=none;align=left;verticalAlign=middle;spacingTop=-1;spacingLeft=3;spacingRight=3;rotatable=0;labelPosition=right;points=[];portConstraint=eastwest;strokeColor=inherit;" vertex="1" parent="7MXfpeJZ0Hmo8aoVelBx-75">
          <mxGeometry y="52" width="160" height="8" as="geometry" />
        </mxCell>
        <mxCell id="7MXfpeJZ0Hmo8aoVelBx-78" value="+ method(type): type" style="text;strokeColor=none;fillColor=none;align=left;verticalAlign=top;spacingLeft=4;spacingRight=4;overflow=hidden;rotatable=0;points=[[0,0.5],[1,0.5]];portConstraint=eastwest;whiteSpace=wrap;html=1;" vertex="1" parent="7MXfpeJZ0Hmo8aoVelBx-75">
          <mxGeometry y="60" width="160" height="26" as="geometry" />
        </mxCell>
        <mxCell id="7MXfpeJZ0Hmo8aoVelBx-81" value="Model" style="swimlane;fontStyle=1;align=center;verticalAlign=top;childLayout=stackLayout;horizontal=1;startSize=26;horizontalStack=0;resizeParent=1;resizeParentMax=0;resizeLast=0;collapsible=1;marginBottom=0;whiteSpace=wrap;html=1;" vertex="1" parent="1">
          <mxGeometry x="-380" y="2000" width="160" height="86" as="geometry" />
        </mxCell>
        <mxCell id="7MXfpeJZ0Hmo8aoVelBx-82" value="+ field: type" style="text;strokeColor=none;fillColor=none;align=left;verticalAlign=top;spacingLeft=4;spacingRight=4;overflow=hidden;rotatable=0;points=[[0,0.5],[1,0.5]];portConstraint=eastwest;whiteSpace=wrap;html=1;" vertex="1" parent="7MXfpeJZ0Hmo8aoVelBx-81">
          <mxGeometry y="26" width="160" height="26" as="geometry" />
        </mxCell>
        <mxCell id="7MXfpeJZ0Hmo8aoVelBx-83" value="" style="line;strokeWidth=1;fillColor=none;align=left;verticalAlign=middle;spacingTop=-1;spacingLeft=3;spacingRight=3;rotatable=0;labelPosition=right;points=[];portConstraint=eastwest;strokeColor=inherit;" vertex="1" parent="7MXfpeJZ0Hmo8aoVelBx-81">
          <mxGeometry y="52" width="160" height="8" as="geometry" />
        </mxCell>
        <mxCell id="7MXfpeJZ0Hmo8aoVelBx-84" value="+ method(type): type" style="text;strokeColor=none;fillColor=none;align=left;verticalAlign=top;spacingLeft=4;spacingRight=4;overflow=hidden;rotatable=0;points=[[0,0.5],[1,0.5]];portConstraint=eastwest;whiteSpace=wrap;html=1;" vertex="1" parent="7MXfpeJZ0Hmo8aoVelBx-81">
          <mxGeometry y="60" width="160" height="26" as="geometry" />
        </mxCell>
        <mxCell id="7MXfpeJZ0Hmo8aoVelBx-88" value="Sedan" style="swimlane;fontStyle=1;align=center;verticalAlign=top;childLayout=stackLayout;horizontal=1;startSize=26;horizontalStack=0;resizeParent=1;resizeParentMax=0;resizeLast=0;collapsible=1;marginBottom=0;whiteSpace=wrap;html=1;" vertex="1" parent="1">
          <mxGeometry x="-740" y="1860" width="160" height="86" as="geometry" />
        </mxCell>
        <mxCell id="7MXfpeJZ0Hmo8aoVelBx-89" value="+ field: type" style="text;strokeColor=none;fillColor=none;align=left;verticalAlign=top;spacingLeft=4;spacingRight=4;overflow=hidden;rotatable=0;points=[[0,0.5],[1,0.5]];portConstraint=eastwest;whiteSpace=wrap;html=1;" vertex="1" parent="7MXfpeJZ0Hmo8aoVelBx-88">
          <mxGeometry y="26" width="160" height="26" as="geometry" />
        </mxCell>
        <mxCell id="7MXfpeJZ0Hmo8aoVelBx-90" value="" style="line;strokeWidth=1;fillColor=none;align=left;verticalAlign=middle;spacingTop=-1;spacingLeft=3;spacingRight=3;rotatable=0;labelPosition=right;points=[];portConstraint=eastwest;strokeColor=inherit;" vertex="1" parent="7MXfpeJZ0Hmo8aoVelBx-88">
          <mxGeometry y="52" width="160" height="8" as="geometry" />
        </mxCell>
        <mxCell id="7MXfpeJZ0Hmo8aoVelBx-91" value="+ method(type): type" style="text;strokeColor=none;fillColor=none;align=left;verticalAlign=top;spacingLeft=4;spacingRight=4;overflow=hidden;rotatable=0;points=[[0,0.5],[1,0.5]];portConstraint=eastwest;whiteSpace=wrap;html=1;" vertex="1" parent="7MXfpeJZ0Hmo8aoVelBx-88">
          <mxGeometry y="60" width="160" height="26" as="geometry" />
        </mxCell>
        <mxCell id="7MXfpeJZ0Hmo8aoVelBx-92" value="SUV" style="swimlane;fontStyle=1;align=center;verticalAlign=top;childLayout=stackLayout;horizontal=1;startSize=26;horizontalStack=0;resizeParent=1;resizeParentMax=0;resizeLast=0;collapsible=1;marginBottom=0;whiteSpace=wrap;html=1;" vertex="1" parent="1">
          <mxGeometry x="-740" y="1730" width="160" height="86" as="geometry" />
        </mxCell>
        <mxCell id="7MXfpeJZ0Hmo8aoVelBx-93" value="+ field: type" style="text;strokeColor=none;fillColor=none;align=left;verticalAlign=top;spacingLeft=4;spacingRight=4;overflow=hidden;rotatable=0;points=[[0,0.5],[1,0.5]];portConstraint=eastwest;whiteSpace=wrap;html=1;" vertex="1" parent="7MXfpeJZ0Hmo8aoVelBx-92">
          <mxGeometry y="26" width="160" height="26" as="geometry" />
        </mxCell>
        <mxCell id="7MXfpeJZ0Hmo8aoVelBx-94" value="" style="line;strokeWidth=1;fillColor=none;align=left;verticalAlign=middle;spacingTop=-1;spacingLeft=3;spacingRight=3;rotatable=0;labelPosition=right;points=[];portConstraint=eastwest;strokeColor=inherit;" vertex="1" parent="7MXfpeJZ0Hmo8aoVelBx-92">
          <mxGeometry y="52" width="160" height="8" as="geometry" />
        </mxCell>
        <mxCell id="7MXfpeJZ0Hmo8aoVelBx-95" value="+ method(type): type" style="text;strokeColor=none;fillColor=none;align=left;verticalAlign=top;spacingLeft=4;spacingRight=4;overflow=hidden;rotatable=0;points=[[0,0.5],[1,0.5]];portConstraint=eastwest;whiteSpace=wrap;html=1;" vertex="1" parent="7MXfpeJZ0Hmo8aoVelBx-92">
          <mxGeometry y="60" width="160" height="26" as="geometry" />
        </mxCell>
        <mxCell id="7MXfpeJZ0Hmo8aoVelBx-96" value="Cabrio" style="swimlane;fontStyle=1;align=center;verticalAlign=top;childLayout=stackLayout;horizontal=1;startSize=26;horizontalStack=0;resizeParent=1;resizeParentMax=0;resizeLast=0;collapsible=1;marginBottom=0;whiteSpace=wrap;html=1;" vertex="1" parent="1">
          <mxGeometry x="-740" y="1550" width="160" height="86" as="geometry" />
        </mxCell>
        <mxCell id="7MXfpeJZ0Hmo8aoVelBx-97" value="+ field: type" style="text;strokeColor=none;fillColor=none;align=left;verticalAlign=top;spacingLeft=4;spacingRight=4;overflow=hidden;rotatable=0;points=[[0,0.5],[1,0.5]];portConstraint=eastwest;whiteSpace=wrap;html=1;" vertex="1" parent="7MXfpeJZ0Hmo8aoVelBx-96">
          <mxGeometry y="26" width="160" height="26" as="geometry" />
        </mxCell>
        <mxCell id="7MXfpeJZ0Hmo8aoVelBx-98" value="" style="line;strokeWidth=1;fillColor=none;align=left;verticalAlign=middle;spacingTop=-1;spacingLeft=3;spacingRight=3;rotatable=0;labelPosition=right;points=[];portConstraint=eastwest;strokeColor=inherit;" vertex="1" parent="7MXfpeJZ0Hmo8aoVelBx-96">
          <mxGeometry y="52" width="160" height="8" as="geometry" />
        </mxCell>
        <mxCell id="7MXfpeJZ0Hmo8aoVelBx-99" value="+ method(type): type" style="text;strokeColor=none;fillColor=none;align=left;verticalAlign=top;spacingLeft=4;spacingRight=4;overflow=hidden;rotatable=0;points=[[0,0.5],[1,0.5]];portConstraint=eastwest;whiteSpace=wrap;html=1;" vertex="1" parent="7MXfpeJZ0Hmo8aoVelBx-96">
          <mxGeometry y="60" width="160" height="26" as="geometry" />
        </mxCell>
        <mxCell id="7MXfpeJZ0Hmo8aoVelBx-101" value="" style="endArrow=none;html=1;rounded=0;exitX=1;exitY=0.25;exitDx=0;exitDy=0;" edge="1" parent="1" source="7MXfpeJZ0Hmo8aoVelBx-96">
          <mxGeometry width="50" height="50" relative="1" as="geometry">
            <mxPoint x="-320" y="1820" as="sourcePoint" />
            <mxPoint x="-490" y="1750" as="targetPoint" />
            <Array as="points">
              <mxPoint x="-490" y="1622" />
            </Array>
          </mxGeometry>
        </mxCell>
        <mxCell id="7MXfpeJZ0Hmo8aoVelBx-102" value="" style="endArrow=none;html=1;rounded=0;exitX=1;exitY=0.25;exitDx=0;exitDy=0;" edge="1" parent="1" source="7MXfpeJZ0Hmo8aoVelBx-88">
          <mxGeometry width="50" height="50" relative="1" as="geometry">
            <mxPoint x="-550" y="1820" as="sourcePoint" />
            <mxPoint x="-490" y="1750" as="targetPoint" />
            <Array as="points">
              <mxPoint x="-490" y="1880" />
            </Array>
          </mxGeometry>
        </mxCell>
        <mxCell id="7MXfpeJZ0Hmo8aoVelBx-103" value="Website" style="swimlane;fontStyle=1;align=center;verticalAlign=top;childLayout=stackLayout;horizontal=1;startSize=26;horizontalStack=0;resizeParent=1;resizeParentMax=0;resizeLast=0;collapsible=1;marginBottom=0;whiteSpace=wrap;html=1;" vertex="1" parent="1">
          <mxGeometry x="580" y="1860" width="160" height="86" as="geometry" />
        </mxCell>
        <mxCell id="7MXfpeJZ0Hmo8aoVelBx-104" value="+ field: type" style="text;strokeColor=none;fillColor=none;align=left;verticalAlign=top;spacingLeft=4;spacingRight=4;overflow=hidden;rotatable=0;points=[[0,0.5],[1,0.5]];portConstraint=eastwest;whiteSpace=wrap;html=1;" vertex="1" parent="7MXfpeJZ0Hmo8aoVelBx-103">
          <mxGeometry y="26" width="160" height="26" as="geometry" />
        </mxCell>
        <mxCell id="7MXfpeJZ0Hmo8aoVelBx-105" value="" style="line;strokeWidth=1;fillColor=none;align=left;verticalAlign=middle;spacingTop=-1;spacingLeft=3;spacingRight=3;rotatable=0;labelPosition=right;points=[];portConstraint=eastwest;strokeColor=inherit;" vertex="1" parent="7MXfpeJZ0Hmo8aoVelBx-103">
          <mxGeometry y="52" width="160" height="8" as="geometry" />
        </mxCell>
        <mxCell id="7MXfpeJZ0Hmo8aoVelBx-106" value="+ method(type): type" style="text;strokeColor=none;fillColor=none;align=left;verticalAlign=top;spacingLeft=4;spacingRight=4;overflow=hidden;rotatable=0;points=[[0,0.5],[1,0.5]];portConstraint=eastwest;whiteSpace=wrap;html=1;" vertex="1" parent="7MXfpeJZ0Hmo8aoVelBx-103">
          <mxGeometry y="60" width="160" height="26" as="geometry" />
        </mxCell>
        <mxCell id="7MXfpeJZ0Hmo8aoVelBx-107" value="" style="endArrow=open;html=1;rounded=0;exitX=0.503;exitY=1.156;exitDx=0;exitDy=0;entryX=0.5;entryY=0;entryDx=0;entryDy=0;dashed=1;dashPattern=8 8;endFill=0;exitPerimeter=0;" edge="1" parent="1" source="7MXfpeJZ0Hmo8aoVelBx-78" target="7MXfpeJZ0Hmo8aoVelBx-19">
          <mxGeometry width="50" height="50" relative="1" as="geometry">
            <mxPoint x="180" y="1590" as="sourcePoint" />
            <mxPoint x="260" y="1590" as="targetPoint" />
          </mxGeometry>
        </mxCell>
        <mxCell id="7MXfpeJZ0Hmo8aoVelBx-108" value="buys" style="edgeLabel;html=1;align=center;verticalAlign=middle;resizable=0;points=[];" vertex="1" connectable="0" parent="7MXfpeJZ0Hmo8aoVelBx-107">
          <mxGeometry x="-0.0444" y="-1" relative="1" as="geometry">
            <mxPoint as="offset" />
          </mxGeometry>
        </mxCell>
        <mxCell id="7MXfpeJZ0Hmo8aoVelBx-109" value="DealerShip" style="swimlane;fontStyle=1;align=center;verticalAlign=top;childLayout=stackLayout;horizontal=1;startSize=26;horizontalStack=0;resizeParent=1;resizeParentMax=0;resizeLast=0;collapsible=1;marginBottom=0;whiteSpace=wrap;html=1;" vertex="1" parent="1">
          <mxGeometry x="406.25" y="1630" width="160" height="86" as="geometry" />
        </mxCell>
        <mxCell id="7MXfpeJZ0Hmo8aoVelBx-110" value="+ field: type" style="text;strokeColor=none;fillColor=none;align=left;verticalAlign=top;spacingLeft=4;spacingRight=4;overflow=hidden;rotatable=0;points=[[0,0.5],[1,0.5]];portConstraint=eastwest;whiteSpace=wrap;html=1;" vertex="1" parent="7MXfpeJZ0Hmo8aoVelBx-109">
          <mxGeometry y="26" width="160" height="26" as="geometry" />
        </mxCell>
        <mxCell id="7MXfpeJZ0Hmo8aoVelBx-111" value="" style="line;strokeWidth=1;fillColor=none;align=left;verticalAlign=middle;spacingTop=-1;spacingLeft=3;spacingRight=3;rotatable=0;labelPosition=right;points=[];portConstraint=eastwest;strokeColor=inherit;" vertex="1" parent="7MXfpeJZ0Hmo8aoVelBx-109">
          <mxGeometry y="52" width="160" height="8" as="geometry" />
        </mxCell>
        <mxCell id="7MXfpeJZ0Hmo8aoVelBx-112" value="+ method(type): type" style="text;strokeColor=none;fillColor=none;align=left;verticalAlign=top;spacingLeft=4;spacingRight=4;overflow=hidden;rotatable=0;points=[[0,0.5],[1,0.5]];portConstraint=eastwest;whiteSpace=wrap;html=1;" vertex="1" parent="7MXfpeJZ0Hmo8aoVelBx-109">
          <mxGeometry y="60" width="160" height="26" as="geometry" />
        </mxCell>
        <mxCell id="7MXfpeJZ0Hmo8aoVelBx-113" value="" style="endArrow=open;html=1;rounded=0;exitX=0;exitY=0.25;exitDx=0;exitDy=0;entryX=1;entryY=0.25;entryDx=0;entryDy=0;dashed=1;dashPattern=8 8;endFill=0;" edge="1" parent="1" source="7MXfpeJZ0Hmo8aoVelBx-109" target="7MXfpeJZ0Hmo8aoVelBx-19">
          <mxGeometry width="50" height="50" relative="1" as="geometry">
            <mxPoint x="550" y="1620" as="sourcePoint" />
            <mxPoint x="400" y="1620" as="targetPoint" />
          </mxGeometry>
        </mxCell>
        <mxCell id="7MXfpeJZ0Hmo8aoVelBx-114" value="Sells" style="edgeLabel;html=1;align=center;verticalAlign=middle;resizable=0;points=[];" vertex="1" connectable="0" parent="7MXfpeJZ0Hmo8aoVelBx-113">
          <mxGeometry x="-0.0444" y="-1" relative="1" as="geometry">
            <mxPoint as="offset" />
          </mxGeometry>
        </mxCell>
        <mxCell id="7MXfpeJZ0Hmo8aoVelBx-125" value="Telephone" style="swimlane;fontStyle=1;align=center;verticalAlign=top;childLayout=stackLayout;horizontal=1;startSize=26;horizontalStack=0;resizeParent=1;resizeParentMax=0;resizeLast=0;collapsible=1;marginBottom=0;whiteSpace=wrap;html=1;" vertex="1" parent="1">
          <mxGeometry x="770" y="1860" width="160" height="86" as="geometry" />
        </mxCell>
        <mxCell id="7MXfpeJZ0Hmo8aoVelBx-126" value="+ field: type" style="text;strokeColor=none;fillColor=none;align=left;verticalAlign=top;spacingLeft=4;spacingRight=4;overflow=hidden;rotatable=0;points=[[0,0.5],[1,0.5]];portConstraint=eastwest;whiteSpace=wrap;html=1;" vertex="1" parent="7MXfpeJZ0Hmo8aoVelBx-125">
          <mxGeometry y="26" width="160" height="26" as="geometry" />
        </mxCell>
        <mxCell id="7MXfpeJZ0Hmo8aoVelBx-127" value="" style="line;strokeWidth=1;fillColor=none;align=left;verticalAlign=middle;spacingTop=-1;spacingLeft=3;spacingRight=3;rotatable=0;labelPosition=right;points=[];portConstraint=eastwest;strokeColor=inherit;" vertex="1" parent="7MXfpeJZ0Hmo8aoVelBx-125">
          <mxGeometry y="52" width="160" height="8" as="geometry" />
        </mxCell>
        <mxCell id="7MXfpeJZ0Hmo8aoVelBx-128" value="+ method(type): type" style="text;strokeColor=none;fillColor=none;align=left;verticalAlign=top;spacingLeft=4;spacingRight=4;overflow=hidden;rotatable=0;points=[[0,0.5],[1,0.5]];portConstraint=eastwest;whiteSpace=wrap;html=1;" vertex="1" parent="7MXfpeJZ0Hmo8aoVelBx-125">
          <mxGeometry y="60" width="160" height="26" as="geometry" />
        </mxCell>
        <mxCell id="7MXfpeJZ0Hmo8aoVelBx-129" value="Physical" style="swimlane;fontStyle=1;align=center;verticalAlign=top;childLayout=stackLayout;horizontal=1;startSize=26;horizontalStack=0;resizeParent=1;resizeParentMax=0;resizeLast=0;collapsible=1;marginBottom=0;whiteSpace=wrap;html=1;" vertex="1" parent="1">
          <mxGeometry x="960" y="1860" width="160" height="86" as="geometry" />
        </mxCell>
        <mxCell id="7MXfpeJZ0Hmo8aoVelBx-130" value="+ field: type" style="text;strokeColor=none;fillColor=none;align=left;verticalAlign=top;spacingLeft=4;spacingRight=4;overflow=hidden;rotatable=0;points=[[0,0.5],[1,0.5]];portConstraint=eastwest;whiteSpace=wrap;html=1;" vertex="1" parent="7MXfpeJZ0Hmo8aoVelBx-129">
          <mxGeometry y="26" width="160" height="26" as="geometry" />
        </mxCell>
        <mxCell id="7MXfpeJZ0Hmo8aoVelBx-131" value="" style="line;strokeWidth=1;fillColor=none;align=left;verticalAlign=middle;spacingTop=-1;spacingLeft=3;spacingRight=3;rotatable=0;labelPosition=right;points=[];portConstraint=eastwest;strokeColor=inherit;" vertex="1" parent="7MXfpeJZ0Hmo8aoVelBx-129">
          <mxGeometry y="52" width="160" height="8" as="geometry" />
        </mxCell>
        <mxCell id="7MXfpeJZ0Hmo8aoVelBx-132" value="+ method(type): type" style="text;strokeColor=none;fillColor=none;align=left;verticalAlign=top;spacingLeft=4;spacingRight=4;overflow=hidden;rotatable=0;points=[[0,0.5],[1,0.5]];portConstraint=eastwest;whiteSpace=wrap;html=1;" vertex="1" parent="7MXfpeJZ0Hmo8aoVelBx-129">
          <mxGeometry y="60" width="160" height="26" as="geometry" />
        </mxCell>
        <mxCell id="7MXfpeJZ0Hmo8aoVelBx-144" value="" style="shape=image;verticalLabelPosition=bottom;labelBackgroundColor=default;verticalAlign=top;aspect=fixed;imageAspect=0;image=data:image/jpeg,/9j/4AAQSkZJRgABAQAAAQABAAD/2wCEAAkGBxAQEBAQEBAQDxAPDw8PDw8PDw8PDw8PFREWFhURFRUYHSggGBolGxUVITEhJSkrLi4uFx8/OD8tNygtLi0BCgoKDg0OFxAQFSsdFRkrLSsrLSstKy0tLS0tKy0tLSstLS0tNy03NzctNzc3Ny03KystNy03LSsrKysrKy0rK//AABEIAOEA4QMBIgACEQEDEQH/xAAcAAABBQEBAQAAAAAAAAAAAAAEAAIDBQYBBwj/xAA4EAACAgECBQEHAgQEBwAAAAAAAQIDEQQhBRIxQVETBhQiYXGT0TJTQoGhsSNSkcEVM0NicnOD/8QAGAEAAwEBAAAAAAAAAAAAAAAAAAECAwT/xAAeEQEBAQEBAQEBAQEBAAAAAAAAARECIQMSMVFBE//aAAwDAQACEQMRAD8A8o5GWfs9X8byDbZNB7P6dJc7/kPgVe6WjCyya61LoDT1HZA1k8m+al261tg7Y6TGMuJtcbHwZFIdBjIZUxzRHRInYjRNCHNHGgIxobykmRIMRZ/0zlFyDx8RFKh9M44BfKhemIwTQ3AbKkgnSOUWBpHMEkoHEijhmB0Ijkh0Yi1SSCHxQq4kqiIzJojkTTIpCI3BwccAtZCqGWl5Zq6I8sVHwjN6Ff4kfqaOVi8mXznjXo7I1jHYiOV8fJtGaSTGOQHqOIKJXXcTb6FGtLtSkSU2Z3M77w5Mu9HHERaSxrljcMUiuxmLOcO1ql8LfxR2wI1jIazuTjKS4xopDWBUsjozGHUhYSeMieAHFkkJEmMwclWhsZkiYiCWUkLrD5IilAegMoj1ElUBygC4jjEkZ3B1gaGbIZMkmyNDRpCH4EAYiVzhhrqTriEgLULKyCKww+dxvVxLiL6EFusfkAjlk8NNJ9jTbUmWWtnaoNhtPDXncs9NoVEorQ2h0Xdl1CGxyurBMkCTK0UfEIyqs549Ml6uoy6iM04y7jNFw/iimlnZlirEzJa3Rzollbx8hOj4q1sxwsaNsYA18QiyaOoXkpNghDsg3vEV3Oe9LyIYMR1AkNVHySxvT6MkYJjYTQsAeYfCQYQ9s5girmERZIKMR2B0YncC1aJojmx9jBbZlQjJM7XEZzBNCGTvIIm54+TgbFfl55JbYAbasMOYxo4uesbUdwvSqSyW1dEV2KnheoUXhl8llZR1cWWMu9iNRRJHAwSLRqXmHpkGByYDUkkNkOyKQLMsgppqSyZ3X8NlW8w3j1+hoUxzSezEGOVzXyJXrZdmXWt4TGW62ZU3cLlHoP09gd6qfkS1E/JDZCcesWR+v5JtpjY6qfkJo1rRVq0fGQfosaLT8Qz1LKq3K2MlVYWug1XYepsaKmZYULJT0z3LbTSHUioxOT6D0R3bInBoS6QHN5H32ECZcFTVxHa3Uqqtv+J7ROwaiuaXRGd4hq3bNvstooz+nWRfHOl77Z5EDiOX91t+QLGNnWxjZAdyWOg4k4/DLdf2KzInIvnrCzWsjJSWU8iexntBr3W8PePgstXxapRTTznsjr47ljLrn3wcrB3OZ/8A4zDO+UHUa2MujT/mPdLFrCRLICqsDJPYY0P3JFIhb3OuQDUrYyUUN5heoBIrNPF9gO7hNcu2PoWHMh0WFglZ3UcEa3gyutrnDaS/mbORDfpozW6TF+VSspXMK0s9wnUcKxlx/wBAJ1Si91gnLDafQ25SL3SGR4Vduka3QItFWK6AerswGN4RUa60UILbPLH1R7voCysS+J7JFZxDi3MuWDwu7H11OYrmWp+LcR5nyR/SuvzZT6jVKC+fggv1KivL8EGl0zm+ef8AU5Or+q3kyO/8Qs8CLD0o+BEDQrY1s5JjGxA7Jwa2NyOQHMuvY/gL1NkpT/5VXX5vwUMp4PVfZHTKvQxaW9jcmP8AkDK+02h09XwpLma2RjrK51PKePozbe22rp5YqMf8WOeZmM0VTvs5W2HNoq44RxLnxGWzNO/0r6GV41wpaR1Ti/1Yyaep5rg/MUzr461j1PQ8upxs5J7kcmViT3IY7AbU6hRRVX66x/pi2GyH+dXnrD1aZaeuuj1TX1J6ONdpLAv3D/LTwsJUVGl1kZdGWMJplSo9iXALqdMpfUJydbGNVNFThNfU13DnsiglXmSNDw6GwqLRGpsxEodfeopyk8JeS41zMzx6qNvLBS6P4ku5O4fMZzX8SnfPljnkT6LuD33yjtyteMrBr+F8NqrWWlsB+02prsUYxitn17mPc1vzGc0tDk+aRaQeNgeG3QlizC1ScRHzCEeAWxjkJjB4l3Ill9BOOFmTx8iC7V9o7Lz3KCf0OaSj1fXC8Hq3szrYy00ILrWsNdzA+xunUvUm93jlRZxlOiblW8fLszT/AM95Tvqu9pK3ZdYls89GUFMLap7Lc1XFNVDUfFOLrtX8cej+pTzqbf64/wBcmf56gt/wDrdTbZy+pLOGsI3Ne1UF/wBkf7GU03DvUsilmXxJt9jYatYSS7JI6PlLiKBYNfPASgHXvZmicQ6HSu+zD/Supp7tDXRU5OGyXXAH7JafMebyyx9r+JOFPpYXxbHN9OvW0mMJxKXqNy6R7Iq56bwFYc5qHZl3xDg8a6eeOM48kTU+stXOdb2yjQ8M4jzrD6lRVU5NZ7k11MqZRa6M1479FmtRCeRzkD6KTnFP5EzrZ1MaI00Ms0elhyxz8io4Xp22ix4rqFXXjvgmnPVJxrXNtxj1K2EXFOch0Zpyb6+WN12oTS7Qj1+bJraRFdq3hybwuyKSy7mlkg12vcpbbRXReTlNql8mc/dWLjImiwVPBNGRlSTcx0i5hCAaMG/p5IrL4w6bvyd1nqdOXEfkA4LPDrbHJ5bGYHJD1ACav2KfwWL5ottdRko/YyeJzj5WTT2LJ1fO7yz6Z+yqXgjr0km+hoI0ZfQLp00fBWJ0LwnQ8i5n1G62WWyxvsUUUl1mWAN7Ffr1mLDXLYFtedg0Ln2TsXpr5EPttGTin4ZV8K1bom31g+q8Gkvup1VbipLOOj65Ob6c1pL482slKElJIlv4pdbHkfQu7dP6bcLI5XaXYCs5E8QS3MZ3Z5hfxDwWhytjHr5NJ7R8NSri11RDwVVULnm8yfZBF+rlqZpcrUEy+ebacuT1NwLR/BHbdouYaDPYI0OnUUklgsoVpHZK57fQWk0vJv2RnPaBuc1h7b7Gp4hPlreOrMFxXjUIPlj8cv6Im3GvEdtr5I5bwvJneI6zn+GO0V/U7rNbOzq9vAI0Y9d60QSRzBK0NaMxqejUdpfyYX/byVbiTUalx26rwBjuY6Re8w+ZwWBZV3Rt3Wz8A+phDpOOH/miA13ci5l17BNOt59p9fI1bh9Wgi91v8h6rx/Cl/I7GON4v+XY7HWpPE0L0eDeE24sj2zsaScjIUXwdi5XsmjVxg5NeMLc6PjfGfafTJyfyDf0oVUMIG1tnY3Zg9bflgHcmtI4oVDqQNdUGRRySyI7FW4tC9NdU3F/IsHRkilpPAiB2Vzezm2vmchpUGLTPySVaTPVh+YNptEI9MZZecPo6bYBtNRGJZUzSH4V2rPTxwEuRXwvBuK8SVNUp+Ft9RaJyp/bbj3JH0a38ctm/CMHCHd7t9Wwi3nnOVk95SedxrRh33rbnnETRwkaG8pmEbQ1okaONAEWBkkTNDGgCPAh/KICPktjkESJDJrDBYyiMsbDbKpS2fQl0b2DIxAldpdLLnio9co9E0VbUY57JZM97P6PNjk+iNbCOx0/KZEdeuWSwirtbkw7UPOyOQ05ohXSpGOguFpvkMs04hFQ44GsNuqwCzgGHriYm0NUjjY8I7J2M8ETZwAJjaSwuBIIJrrEcguq3JSe0d3NJQztHdrtkvFiEXJ9kZnjujscfVjnD3Mfr1kaczQdGJ2KPZbyfhIh1VG7kumSfh9fp1Sb/VP4RsYNHPWmK5o4w26jO6/0BJRaHCsRNHGgmirO8toou9VwSMtI9XH4IxfJv/E/kGpxmWhrQ/BxxGSPAh/KIAckdnHKEh2ANNog9TS6vBX6aTi9u5ZaCMrZqOE999gDTez1OK2/8zLeXQWj03LFJLoiZ1ZZ18zxFoeqrLDqtOSUUB9dYM70D9AE1EC3twkVl7y2OI1VW15YPqK8JlhYir4ldhNDOarZS3HpkGSSA1nM7FCHQiI9S1RDdPWQ6essIYhFyfSKyIaofaviKqUak8N7sl03ElOmMJLG2z8mR41qvXtlN7rmaX0D9FxDNLg/4Vszk+3rbgbqNOm1h7J5SIXEi0usz1J5TMWmopLq+4BfdFPElgPkQ2VxlsxylQnqeo1GOyX9WaD2h1nJpKNKukVzy/8AJlJpqPTlzLdLfAr3OzMpJ/7lbEq9nB0oYGspNcOHRAR6HHMDgM+qDk0l1fQ3HAeFKpRfVyWc/wCxitJqVXZGTXNv0N7puIcyjJLlWFiPg0+c9T1V3WgiusB016kWFc0bsrRNcMDskfroGu1SS6gg/UWlVfqUu5DrNe28RAvd5S3Yacd1Wu8FTZlvLLr3AHu0mBq2KiSH1skvrwRwKJKkF6enJBRHJaaesKNPpqKj2x4h6VXpp/FP+xfSmoRcn0SPMuPa933Sl2WyMuri+QEZj1Y1ncgwd5jD+tJRenvwWFd5SonrsaJsVq39QbzgMbh3rE4rR8LCZWJldGwmhPBOA7UabO66gE69/D8FkpZG21JlSlVXyPwIL9F+To9SgSO4EhyRWCoK1mz6Go4Zq048veP9jLUvEmyaOolGWU9y+LlTfW40urw+paw1xhaeL+Vhl3Ta3BST6o6N3+MryvreI4BXqJTfyKKd0s9TlXEJxJqpy1Gl03ksIULBmtLxWfgsI6+xrZC1HXK59NA2poRXS4vOH6oPHkL0fE67ejWfHcaMVWtpwVmNzRcQh1KGS+IqVcE6SBa0xAtHEJ1WoVcHJ9lkLSU3tfxPkh6cXvLqYQO4pqXdZKTffYDaMO7raTDGhskSMTjsQaJHUzuDmQB8ZjlYQieRYY2Cb6EkbNyvhY4vKC1ZzrxJf1JsOUZCZIplbCwnjYLFaN9Q6B87EGAyI+Twcddnaqz7Vn4I5U2v/p2/bs/BozRN7/UekOens/bs+1Z+BKm39uz7Vn4GHVFM1OlWKY/QzlNMurhZ9qz8F9HUJVpYnlLp6dn4NOLhdKjU3yU3hhOm1nNs+oDqITlJv07ftWfg5VXNNfBb9qz8FXqWl/Gj09qRb6TVpeDOVW4X6Z/bs/BNG9eJ/bs/Aef6Gv8Aeq5LDiiq13Do556nyTW+V0KynWY7zX/zs/AbVxKPRuWP/XZ+Bef6VgmnVucOWf6o7P5la38bOarVRT5oOT8pV2fgip1MebL519a7PwVsLFzplhFB7Sa7mzBPb5B2q4klHEVNv5V2fgz10pSbzCx5fX0rPwK2Ccq2qls5OOA7kkukLftWfgGnTNvPp2/as/BjWgSYkES08/27ft2fgb7tZ+3Z9qf4EEDRFJBnu1n7Vv25/gbLSWftW/bn+AAVCJvc7f2rftz/AAOWjt/at+3P8COIeXIuTwT+6W/tW/bn+BPSW/t2/bn+Bi1FOa/mdhYJ6G39q37c/wAC9yt/at+3P8Cwak9QQ33O39q37c/wIWHr7QEIRSSEIQAhCEAIQhACEIQAhCEAIQhACEIQAhCEAIQhACEIQAhCEAIQhACEIQAhCEAf/9k=;" vertex="1" parent="1">
          <mxGeometry x="-250" y="-280" width="1510" height="1510" as="geometry" />
        </mxCell>
        <mxCell id="7MXfpeJZ0Hmo8aoVelBx-145" value="&lt;font style=&quot;font-size: 200px;&quot;&gt;NO UML?&lt;/font&gt;" style="text;html=1;align=center;verticalAlign=middle;whiteSpace=wrap;rounded=0;" vertex="1" parent="1">
          <mxGeometry x="-60" y="1000" width="1060" height="100" as="geometry" />
        </mxCell>
        <mxCell id="7MXfpeJZ0Hmo8aoVelBx-146" value="CombustionEngine" style="swimlane;fontStyle=1;align=center;verticalAlign=top;childLayout=stackLayout;horizontal=1;startSize=26;horizontalStack=0;resizeParent=1;resizeParentMax=0;resizeLast=0;collapsible=1;marginBottom=0;whiteSpace=wrap;html=1;" vertex="1" parent="1">
          <mxGeometry x="-380" y="1770" width="160" height="86" as="geometry" />
        </mxCell>
        <mxCell id="7MXfpeJZ0Hmo8aoVelBx-147" value="+ field: type" style="text;strokeColor=none;fillColor=none;align=left;verticalAlign=top;spacingLeft=4;spacingRight=4;overflow=hidden;rotatable=0;points=[[0,0.5],[1,0.5]];portConstraint=eastwest;whiteSpace=wrap;html=1;" vertex="1" parent="7MXfpeJZ0Hmo8aoVelBx-146">
          <mxGeometry y="26" width="160" height="26" as="geometry" />
        </mxCell>
        <mxCell id="7MXfpeJZ0Hmo8aoVelBx-148" value="" style="line;strokeWidth=1;fillColor=none;align=left;verticalAlign=middle;spacingTop=-1;spacingLeft=3;spacingRight=3;rotatable=0;labelPosition=right;points=[];portConstraint=eastwest;strokeColor=inherit;" vertex="1" parent="7MXfpeJZ0Hmo8aoVelBx-146">
          <mxGeometry y="52" width="160" height="8" as="geometry" />
        </mxCell>
        <mxCell id="7MXfpeJZ0Hmo8aoVelBx-149" value="+ method(type): type" style="text;strokeColor=none;fillColor=none;align=left;verticalAlign=top;spacingLeft=4;spacingRight=4;overflow=hidden;rotatable=0;points=[[0,0.5],[1,0.5]];portConstraint=eastwest;whiteSpace=wrap;html=1;" vertex="1" parent="7MXfpeJZ0Hmo8aoVelBx-146">
          <mxGeometry y="60" width="160" height="26" as="geometry" />
        </mxCell>
        <mxCell id="7MXfpeJZ0Hmo8aoVelBx-150" value="ElectricalEngine" style="swimlane;fontStyle=1;align=center;verticalAlign=top;childLayout=stackLayout;horizontal=1;startSize=26;horizontalStack=0;resizeParent=1;resizeParentMax=0;resizeLast=0;collapsible=1;marginBottom=0;whiteSpace=wrap;html=1;" vertex="1" parent="1">
          <mxGeometry x="-210" y="1770" width="160" height="86" as="geometry" />
        </mxCell>
        <mxCell id="7MXfpeJZ0Hmo8aoVelBx-151" value="+ field: type" style="text;strokeColor=none;fillColor=none;align=left;verticalAlign=top;spacingLeft=4;spacingRight=4;overflow=hidden;rotatable=0;points=[[0,0.5],[1,0.5]];portConstraint=eastwest;whiteSpace=wrap;html=1;" vertex="1" parent="7MXfpeJZ0Hmo8aoVelBx-150">
          <mxGeometry y="26" width="160" height="26" as="geometry" />
        </mxCell>
        <mxCell id="7MXfpeJZ0Hmo8aoVelBx-152" value="" style="line;strokeWidth=1;fillColor=none;align=left;verticalAlign=middle;spacingTop=-1;spacingLeft=3;spacingRight=3;rotatable=0;labelPosition=right;points=[];portConstraint=eastwest;strokeColor=inherit;" vertex="1" parent="7MXfpeJZ0Hmo8aoVelBx-150">
          <mxGeometry y="52" width="160" height="8" as="geometry" />
        </mxCell>
        <mxCell id="7MXfpeJZ0Hmo8aoVelBx-153" value="+ method(type): type" style="text;strokeColor=none;fillColor=none;align=left;verticalAlign=top;spacingLeft=4;spacingRight=4;overflow=hidden;rotatable=0;points=[[0,0.5],[1,0.5]];portConstraint=eastwest;whiteSpace=wrap;html=1;" vertex="1" parent="7MXfpeJZ0Hmo8aoVelBx-150">
          <mxGeometry y="60" width="160" height="26" as="geometry" />
        </mxCell>
        <mxCell id="7MXfpeJZ0Hmo8aoVelBx-154" style="edgeStyle=orthogonalEdgeStyle;rounded=0;orthogonalLoop=1;jettySize=auto;html=1;exitX=0.5;exitY=0;exitDx=0;exitDy=0;entryX=0.534;entryY=1.015;entryDx=0;entryDy=0;entryPerimeter=0;endArrow=block;endFill=0;" edge="1" parent="1" source="7MXfpeJZ0Hmo8aoVelBx-146" target="7MXfpeJZ0Hmo8aoVelBx-31">
          <mxGeometry relative="1" as="geometry" />
        </mxCell>
        <mxCell id="7MXfpeJZ0Hmo8aoVelBx-155" value="" style="endArrow=none;html=1;rounded=0;exitX=0.5;exitY=0;exitDx=0;exitDy=0;" edge="1" parent="1" source="7MXfpeJZ0Hmo8aoVelBx-150">
          <mxGeometry width="50" height="50" relative="1" as="geometry">
            <mxPoint x="-180" y="1730" as="sourcePoint" />
            <mxPoint x="-210" y="1740" as="targetPoint" />
            <Array as="points">
              <mxPoint x="-130" y="1740" />
            </Array>
          </mxGeometry>
        </mxCell>
        <mxCell id="7MXfpeJZ0Hmo8aoVelBx-156" value="" style="endArrow=block;html=1;rounded=0;endFill=0;endSize=12;exitX=0.503;exitY=-0.029;exitDx=0;exitDy=0;exitPerimeter=0;entryX=0.507;entryY=1.011;entryDx=0;entryDy=0;entryPerimeter=0;edgeStyle=orthogonalEdgeStyle;" edge="1" parent="1" source="7MXfpeJZ0Hmo8aoVelBx-125" target="7MXfpeJZ0Hmo8aoVelBx-26">
          <mxGeometry width="50" height="50" relative="1" as="geometry">
            <mxPoint x="810" y="1830" as="sourcePoint" />
            <mxPoint x="725.5288905298135" y="1790" as="targetPoint" />
          </mxGeometry>
        </mxCell>
        <mxCell id="7MXfpeJZ0Hmo8aoVelBx-158" value="" style="endArrow=block;html=1;rounded=0;endFill=0;endSize=12;exitX=0.5;exitY=0;exitDx=0;exitDy=0;entryX=0.507;entryY=1.011;entryDx=0;entryDy=0;entryPerimeter=0;edgeStyle=orthogonalEdgeStyle;" edge="1" parent="1" source="7MXfpeJZ0Hmo8aoVelBx-129" target="7MXfpeJZ0Hmo8aoVelBx-26">
          <mxGeometry width="50" height="50" relative="1" as="geometry">
            <mxPoint x="810" y="1830" as="sourcePoint" />
            <mxPoint x="725.5288905298135" y="1790" as="targetPoint" />
          </mxGeometry>
        </mxCell>
        <mxCell id="7MXfpeJZ0Hmo8aoVelBx-159" value="" style="endArrow=block;html=1;rounded=0;endFill=0;endSize=12;entryX=0.507;entryY=1.011;entryDx=0;entryDy=0;entryPerimeter=0;edgeStyle=orthogonalEdgeStyle;" edge="1" parent="1" source="7MXfpeJZ0Hmo8aoVelBx-103" target="7MXfpeJZ0Hmo8aoVelBx-26">
          <mxGeometry width="50" height="50" relative="1" as="geometry">
            <mxPoint x="810" y="1830" as="sourcePoint" />
            <mxPoint x="725.5288905298135" y="1790" as="targetPoint" />
          </mxGeometry>
        </mxCell>
        <mxCell id="7MXfpeJZ0Hmo8aoVelBx-160" value="Car" style="rounded=0;whiteSpace=wrap;html=1;" vertex="1" parent="1">
          <mxGeometry x="610" y="1490" width="120" height="60" as="geometry" />
        </mxCell>
        <mxCell id="7MXfpeJZ0Hmo8aoVelBx-161" value="Cabrio" style="rounded=0;whiteSpace=wrap;html=1;" vertex="1" parent="1">
          <mxGeometry x="40" y="1760" width="120" height="60" as="geometry" />
        </mxCell>
        <mxCell id="7MXfpeJZ0Hmo8aoVelBx-162" value="Suv" style="rounded=0;whiteSpace=wrap;html=1;" vertex="1" parent="1">
          <mxGeometry x="217.5" y="1760" width="120" height="60" as="geometry" />
        </mxCell>
        <mxCell id="7MXfpeJZ0Hmo8aoVelBx-164" value="" style="endArrow=block;html=1;rounded=0;endFill=0;endSize=12;entryX=0.5;entryY=1;entryDx=0;entryDy=0;edgeStyle=orthogonalEdgeStyle;" edge="1" parent="1" source="7MXfpeJZ0Hmo8aoVelBx-161" target="7MXfpeJZ0Hmo8aoVelBx-19">
          <mxGeometry width="50" height="50" relative="1" as="geometry">
            <mxPoint x="190" y="1984" as="sourcePoint" />
            <mxPoint x="381" y="1840" as="targetPoint" />
          </mxGeometry>
        </mxCell>
        <mxCell id="7MXfpeJZ0Hmo8aoVelBx-165" value="" style="endArrow=block;html=1;rounded=0;endFill=0;endSize=12;entryX=0.5;entryY=1;entryDx=0;entryDy=0;edgeStyle=orthogonalEdgeStyle;exitX=0.5;exitY=0;exitDx=0;exitDy=0;" edge="1" parent="1" source="7MXfpeJZ0Hmo8aoVelBx-162" target="7MXfpeJZ0Hmo8aoVelBx-19">
          <mxGeometry width="50" height="50" relative="1" as="geometry">
            <mxPoint x="190" y="1984" as="sourcePoint" />
            <mxPoint x="381" y="1840" as="targetPoint" />
          </mxGeometry>
        </mxCell>
        <mxCell id="7MXfpeJZ0Hmo8aoVelBx-166" value="" style="endArrow=diamond;html=1;rounded=0;endFill=0;endSize=17;edgeStyle=orthogonalEdgeStyle;entryX=0;entryY=0.25;entryDx=0;entryDy=0;exitX=1;exitY=0.25;exitDx=0;exitDy=0;" edge="1" parent="1" source="7MXfpeJZ0Hmo8aoVelBx-28" target="7MXfpeJZ0Hmo8aoVelBx-19">
          <mxGeometry width="50" height="50" relative="1" as="geometry">
            <mxPoint x="20" y="1650" as="sourcePoint" />
            <mxPoint x="-100" y="1610" as="targetPoint" />
          </mxGeometry>
        </mxCell>
      </root>
    </mxGraphModel>
  </diagram>
</mxfile>
